<svg height="800" node-id="1" sillyvg="true" template-height="800" template-width="800" version="1.1" viewBox="0 0 800 800" width="800" xmlns="http://www.w3.org/2000/svg" xmlns:xlink="http://www.w3.org/1999/xlink"><defs node-id="49"><linearGradient gradientUnits="userSpaceOnUse" id="SVGID_1_" node-id="17" spreadMethod="pad" x1="389.8995" x2="389.8995" y1="87.6274" y2="706.619"><stop offset="0.0000001918004" stop-color="#f6f8ff"/><stop offset="1" stop-color="#d9e3ff"/></linearGradient><linearGradient gradientUnits="userSpaceOnUse" id="SVGID_2_" node-id="25" spreadMethod="pad" x1="82.0704" x2="256.6039" y1="313.8314" y2="488.3649"><stop offset="0" stop-color="#d4e1ff"/><stop offset="1" stop-color="#7798ff"/></linearGradient><linearGradient gradientUnits="userSpaceOnUse" id="SVGID_3_" node-id="29" spreadMethod="pad" x1="559.1218" x2="733.6553" y1="313.8314" y2="488.3649"><stop offset="0" stop-color="#d4e1ff"/><stop offset="1" stop-color="#7798ff"/></linearGradient><linearGradient gradientUnits="userSpaceOnUse" id="SVGID_4_" node-id="33" spreadMethod="pad" x1="290.9846" x2="512.0224" y1="274.9543" y2="495.9921"><stop offset="0" stop-color="#d4e1ff"/><stop offset="1" stop-color="#7798ff"/></linearGradient></defs><g node-id="130"><g node-id="131"><path d="M 687.73 167.60 C 687.73 178.52 678.87 187.38 667.95 187.38 C 657.03 187.38 648.17 178.52 648.17 167.60 C 648.17 156.68 657.03 147.82 667.95 147.82 C 678.87 147.82 687.73 156.68 687.73 167.60 Z" fill="#f3f6ff" fill-rule="nonzero" group-id="1,2" node-id="81" stroke="none" target-height="39.559998" target-width="39.559998" target-x="648.17" target-y="147.82"/><path d="M 119.61 619.40 C 119.61 630.32 110.75 639.18 99.83 639.18 C 88.91 639.18 80.05 630.32 80.05 619.40 C 80.05 608.48 88.91 599.62 99.83 599.62 C 110.75 599.62 119.61 608.48 119.61 619.40 Z" fill="#dfe7ff" fill-rule="nonzero" group-id="1,2" node-id="83" stroke="none" target-height="39.559998" target-width="39.559998" target-x="80.05" target-y="599.62"/><path d="M 220.96 681.40 C 213.58 681.40 207.58 675.40 207.58 668.02 C 207.58 660.64 213.58 654.64 220.96 654.64 C 228.34 654.64 234.34 660.64 234.34 668.02 C 234.33 675.40 228.33 681.40 220.96 681.40 Z M 220.96 661.07 C 217.13 661.07 214.01 664.19 214.01 668.02 C 214.01 671.85 217.13 674.97 220.96 674.97 C 224.79 674.97 227.91 671.85 227.91 668.02 C 227.91 664.19 224.79 661.07 220.96 661.07 Z" fill="#dfe7ff" fill-rule="nonzero" group-id="1,2" node-id="85" stroke="none" target-height="26.76001" target-width="26.759995" target-x="207.58" target-y="654.64"/><path d="M 599.39 108.26 L 579.41 108.26 L 579.41 88.28 C 579.41 84.62 576.45 81.66 572.79 81.66 C 569.13 81.66 566.17 84.62 566.17 88.28 L 566.17 108.26 L 546.19 108.26 C 542.53 108.26 539.57 111.22 539.57 114.88 C 539.57 118.54 542.53 121.50 546.19 121.50 L 566.17 121.50 L 566.17 141.48 C 566.17 145.14 569.13 148.10 572.79 148.10 C 576.45 148.10 579.41 145.14 579.41 141.48 L 579.41 121.50 L 599.39 121.50 C 603.05 121.50 606.01 118.54 606.01 114.88 C 606.00 111.22 603.04 108.26 599.39 108.26 Z" fill="#f3f6ff" fill-rule="nonzero" group-id="1,2" node-id="87" stroke="none" target-height="66.44" target-width="66.44" target-x="539.57" target-y="81.66"/><path d="M 656.96 685.29 L 642.12 685.29 L 642.12 670.45 C 642.12 667.41 639.65 664.94 636.61 664.94 C 633.57 664.94 631.10 667.41 631.10 670.45 L 631.10 685.29 L 616.26 685.29 C 613.22 685.29 610.75 687.76 610.75 690.80 C 610.75 693.84 613.22 696.31 616.26 696.31 L 631.10 696.31 L 631.10 711.15 C 631.10 714.19 633.57 716.66 636.61 716.66 C 639.65 716.66 642.12 714.19 642.12 711.15 L 642.12 696.30 L 656.96 696.30 C 660.00 696.30 662.47 693.83 662.47 690.79 C 662.47 687.75 660.00 685.29 656.96 685.29 Z" fill="#dfe7ff" fill-rule="nonzero" group-id="1,2" node-id="89" stroke="none" target-height="51.71997" target-width="51.71997" target-x="610.75" target-y="664.94"/><path d="M 121.90 123.70 C 130.60 132.40 144.72 132.40 153.42 123.70 L 153.42 123.70 C 162.12 115.00 162.12 100.88 153.42 92.18 L 146.76 85.52 C 138.06 76.82 123.94 76.82 115.24 85.52 L 115.24 85.52 C 106.54 94.22 106.54 108.34 115.24 117.04 L 121.90 123.70 Z" fill="#f3f6ff" fill-rule="nonzero" group-id="1,2" node-id="91" stroke="none" target-height="55.579994" target-width="55.579994" target-x="106.54" target-y="76.82"/><path d="M 236.62 115.65 C 240.59 119.62 247.03 119.62 251.00 115.65 C 254.97 111.68 254.97 105.24 251.00 101.27 L 240.99 91.26 C 237.02 87.29 230.58 87.29 226.61 91.26 C 222.64 95.23 222.64 101.67 226.61 105.64 L 236.62 115.65 Z" fill="#f3f6ff" fill-rule="nonzero" group-id="1,2" node-id="93" stroke="none" target-height="32.33" target-width="32.33" target-x="222.64" target-y="87.29"/><path d="M 85.55 316.37 C 89.52 320.34 95.96 320.34 99.93 316.37 L 99.93 316.37 C 103.90 312.40 103.90 305.96 99.93 301.99 L 89.92 291.98 C 85.95 288.01 79.51 288.01 75.54 291.98 C 71.57 295.95 71.57 302.39 75.54 306.36 L 85.55 316.37 Z" fill="#f3f6ff" fill-rule="nonzero" group-id="1,2" node-id="95" stroke="none" target-height="32.329987" target-width="32.33" target-x="71.57" target-y="288.01"/><path d="M 613.51 623.83 C 609.54 619.86 603.10 619.86 599.13 623.83 C 595.16 627.80 595.16 634.24 599.13 638.21 L 609.14 648.22 C 613.11 652.19 619.55 652.19 623.52 648.22 C 627.49 644.25 627.49 637.81 623.52 633.84 L 613.51 623.83 Z" fill="#dfe7ff" fill-rule="nonzero" group-id="1,2" node-id="97" stroke="none" target-height="32.330017" target-width="32.330017" target-x="595.16" target-y="619.86"/><path d="M 733.89 632.32 C 733.89 650.42 719.22 665.09 701.12 665.09 C 683.02 665.09 668.35 650.42 668.35 632.32 C 668.35 614.22 683.02 599.55 701.12 599.55 C 719.22 599.55 733.89 614.22 733.89 632.32 Z" fill="#dfe7ff" fill-rule="nonzero" group-id="1,2" node-id="99" stroke="none" target-height="65.54004" target-width="65.54004" target-x="668.35" target-y="599.55"/><path d="M 701.78 480.36 L 670.27 448.85 L 650.30 427.58 C 645.13 422.15 645.06 413.64 650.14 408.12 L 650.14 408.12 C 655.69 402.09 665.18 401.98 670.86 407.89 L 674.90 412.30 L 684.22 421.62 C 689.63 427.03 698.51 427.44 704.02 422.13 C 709.63 416.72 709.70 407.78 704.21 402.29 L 685.58 383.66 C 678.70 376.78 674.22 367.84 672.92 358.20 C 654.70 222.81 538.72 118.41 398.34 118.41 C 393.55 118.41 388.79 118.54 384.06 118.78 C 378.95 119.04 373.96 117.17 370.35 113.55 L 351.20 94.41 C 342.65 85.86 328.73 85.23 319.88 93.47 C 310.59 102.12 310.40 116.66 319.29 125.56 L 322.63 128.90 L 333.04 139.84 C 339.58 146.76 338.61 157.84 330.96 163.52 C 324.45 168.35 316.28 166.78 310.77 160.83 L 290.08 140.37 L 272.04 122.33 C 268.21 118.50 261.98 118.05 257.91 121.62 C 253.45 125.54 253.29 132.33 257.42 136.46 L 270.56 149.60 L 279.12 157.84 C 287.82 166.36 288.01 179.64 279.36 188.20 L 279.36 188.20 C 270.77 196.69 256.91 196.58 248.47 187.94 L 233.73 172.61 L 198.42 137.30 C 189.72 128.60 175.60 128.60 166.90 137.30 L 166.90 137.30 C 158.20 146.00 158.20 160.12 166.90 168.82 L 192.51 194.51 L 201.49 202.89 C 209.98 211.32 210.18 224.98 201.94 233.65 L 201.94 233.65 C 193.12 242.94 178.25 242.76 169.66 233.25 L 164.70 227.81 L 149.34 212.37 C 136.72 199.75 116.14 198.97 103.18 211.25 C 89.73 223.98 89.51 245.22 102.52 258.23 L 139.86 295.56 L 157.66 313.15 C 164.37 319.79 164.16 330.70 157.20 337.08 L 157.20 337.08 C 150.62 343.11 140.44 342.83 134.21 336.45 L 128.86 330.90 L 120.75 322.79 C 116.78 318.82 110.34 318.82 106.37 322.79 L 106.37 322.79 C 101.31 326.99 102.68 333.48 106.43 337.23 L 124.22 355.02 L 161.21 391.11 C 167.59 397.33 167.62 407.58 161.29 413.84 L 161.29 413.84 C 155.11 419.95 145.17 419.99 138.95 413.92 L 121.28 396.68 L 95.30 370.73 C 89.89 365.32 81.01 364.91 75.50 370.22 C 69.89 375.63 69.82 384.57 75.31 390.06 L 119.20 433.95 C 122.75 437.50 125.11 442.06 126.04 447.00 C 149.53 571.93 256.84 667.27 387.34 672.36 C 394.54 672.64 401.40 675.52 406.62 680.50 C 415.08 688.58 426.89 699.84 426.89 699.84 C 435.44 708.39 449.36 709.02 458.21 700.78 C 467.50 692.13 467.69 677.59 458.80 668.69 L 456.54 666.43 L 446.73 656.19 C 441.14 650.13 441.70 640.64 447.96 635.27 L 447.96 635.27 C 453.89 630.19 462.77 630.69 468.09 636.40 L 488.31 657.62 L 510.33 679.64 C 519.23 688.53 533.77 688.34 542.42 679.06 C 550.66 670.22 550.02 656.29 541.48 647.74 L 531.98 638.24 C 531.98 638.24 528.96 635.13 525.09 631.15 C 516.06 621.87 516.38 606.99 525.79 598.10 L 526.27 597.65 C 535.29 589.13 549.42 589.22 558.34 597.85 L 572.16 611.23 L 578.07 617.14 C 581.90 620.97 588.14 621.42 592.20 617.85 C 596.66 613.93 596.82 607.14 592.69 603.01 L 587.54 597.86 C 586.60 598.30 566.71 577.82 554.91 565.54 C 550.16 560.60 550.35 552.75 555.32 548.04 L 555.32 548.04 C 560.27 543.35 568.09 543.57 572.77 548.52 L 603.80 581.34 L 617.95 595.49 C 630.57 608.11 651.14 608.89 664.11 596.62 C 677.56 583.89 677.78 562.65 664.77 549.64 L 642.20 527.07 L 630.80 514.64 C 625.23 508.62 625.48 499.26 631.36 493.54 L 631.36 493.54 C 637.47 487.60 647.28 487.90 653.03 494.19 L 655.95 497.59 L 670.59 512.24 C 679.49 521.14 694.03 520.94 702.68 511.66 C 710.96 502.84 710.32 488.91 701.78 480.36 Z" fill="url(#SVGID_1_)" fill-rule="nonzero" group-id="1,2" node-id="101" stroke="none" target-height="623.79004" target-width="641.14" target-x="69.82" target-y="85.23"/><path d="M 429.58 201.25 L 414.74 201.25 L 414.74 186.41 C 414.74 183.37 412.27 180.90 409.23 180.90 C 406.19 180.90 403.72 183.37 403.72 186.41 L 403.72 201.25 L 388.88 201.25 C 385.84 201.25 383.37 203.72 383.37 206.76 C 383.37 209.80 385.84 212.27 388.88 212.27 L 403.72 212.27 L 403.72 227.11 C 403.72 230.15 406.19 232.62 409.23 232.62 C 412.27 232.62 414.74 230.15 414.74 227.11 L 414.74 212.27 L 429.58 212.27 C 432.62 212.27 435.09 209.80 435.09 206.76 C 435.09 203.72 432.62 201.25 429.58 201.25 Z" fill="#ffffff" fill-rule="nonzero" group-id="1,2" node-id="103" stroke="none" target-height="51.72" target-width="51.72" target-x="383.37" target-y="180.9"/><path d="M 585.33 419.79 C 577.95 419.79 571.95 413.79 571.95 406.41 C 571.95 399.03 577.95 393.03 585.33 393.03 C 592.71 393.03 598.71 399.03 598.71 406.41 C 598.71 413.79 592.71 419.79 585.33 419.79 Z M 585.33 399.45 C 581.50 399.45 578.38 402.57 578.38 406.40 C 578.38 410.23 581.50 413.35 585.33 413.35 C 589.16 413.35 592.28 410.23 592.28 406.40 C 592.29 402.57 589.17 399.45 585.33 399.45 Z" fill="#ffffff" fill-rule="nonzero" group-id="1,2" node-id="105" stroke="none" target-height="26.76001" target-width="26.76001" target-x="571.95" target-y="393.03"/><path d="M 222.68 521.82 C 215.30 521.82 209.30 515.82 209.30 508.44 C 209.30 501.06 215.30 495.06 222.68 495.06 C 230.06 495.06 236.06 501.06 236.06 508.44 C 236.06 515.82 230.06 521.82 222.68 521.82 Z M 222.68 501.49 C 218.85 501.49 215.73 504.61 215.73 508.44 C 215.73 512.27 218.85 515.39 222.68 515.39 C 226.51 515.39 229.63 512.27 229.63 508.44 C 229.64 504.61 226.52 501.49 222.68 501.49 Z" fill="#ffffff" fill-rule="nonzero" group-id="1,2" node-id="107" stroke="none" target-height="26.76001" target-width="26.759995" target-x="209.3" target-y="495.06"/></g><g node-id="132"><path d="M 256.31 414.64 L 231.19 414.64 L 231.19 362.91 L 176.01 362.91 L 176.01 414.64 L 127.82 414.64 L 202.18 255.58 L 142.01 253.89 L 68.42 412.48 L 68.42 414.64 L 68.38 414.64 L 68.38 478.51 L 176.01 478.51 L 176.01 513.78 L 231.19 513.78 L 231.19 478.51 L 256.31 478.51 Z" fill="url(#SVGID_2_)" fill-rule="nonzero" group-id="1,3" node-id="112" stroke="none" target-height="259.89" target-width="187.93" target-x="68.38" target-y="253.89"/><path d="M 733.37 414.64 L 708.24 414.64 L 708.24 362.91 L 653.06 362.91 L 653.06 414.64 L 604.87 414.64 L 679.23 255.58 L 619.06 253.89 L 545.47 412.48 L 545.47 414.64 L 545.44 414.64 L 545.44 478.51 L 653.06 478.51 L 653.06 513.78 L 708.24 513.78 L 708.24 478.51 L 733.37 478.51 Z" fill="url(#SVGID_3_)" fill-rule="nonzero" group-id="1,3" node-id="114" stroke="none" target-height="259.89" target-width="187.93" target-x="545.44" target-y="253.89"/><path d="M 477.93 249.10 L 464.38 284.40 L 415.82 313.71 L 410.36 360.54 L 388.52 380.94 L 405.18 405.07 L 402.02 432.65 L 386.79 454.20 L 395.70 425.47 L 394.55 407.37 L 362.37 380.65 L 382.77 350.77 L 362.37 297.62 L 378.17 276.07 C 378.17 276.07 367.49 251.15 360.59 234.58 C 294.11 252.56 245.19 313.29 245.19 385.46 C 245.19 471.78 315.17 541.76 401.49 541.76 C 487.81 541.76 557.79 471.78 557.79 385.46 C 557.81 326.91 525.59 275.88 477.93 249.10 Z" fill="url(#SVGID_4_)" fill-rule="nonzero" group-id="1,3" node-id="116" stroke="none" target-height="307.18" target-width="312.62" target-x="245.19" target-y="234.58"/><g node-id="133"><path d="M 452.37 492.50 C 443.41 492.50 436.12 485.21 436.12 476.25 C 436.12 467.29 443.40 460.00 452.37 460.00 C 461.34 460.00 468.62 467.29 468.62 476.25 C 468.62 485.21 461.33 492.50 452.37 492.50 Z M 452.37 466.00 C 446.72 466.00 442.12 470.60 442.12 476.25 C 442.12 481.90 446.72 486.50 452.37 486.50 C 458.02 486.50 462.62 481.90 462.62 476.25 C 462.62 470.60 458.02 466.00 452.37 466.00 Z" fill="#ffffff" fill-rule="nonzero" group-id="1,3,4" node-id="120" stroke="none" target-height="32.5" target-width="32.5" target-x="436.12" target-y="460"/></g><g node-id="134"><path d="M 309.69 426.33 C 302.38 426.33 296.44 420.39 296.44 413.08 C 296.44 405.77 302.38 399.83 309.69 399.83 C 317.00 399.83 322.94 405.77 322.94 413.08 C 322.94 420.39 317.00 426.33 309.69 426.33 Z M 309.69 404.72 C 305.08 404.72 301.33 408.47 301.33 413.08 C 301.33 417.69 305.08 421.44 309.69 421.44 C 314.30 421.44 318.05 417.69 318.05 413.08 C 318.05 408.47 314.30 404.72 309.69 404.72 Z" fill="#ffffff" fill-rule="nonzero" group-id="1,3,5" node-id="125" stroke="none" target-height="26.5" target-width="26.5" target-x="296.44" target-y="399.83"/></g><path d="M 480.78 355.07 L 474.34 349.89 L 479.52 343.45 C 480.58 342.13 480.37 340.20 479.05 339.14 C 477.73 338.08 475.80 338.29 474.74 339.61 L 469.56 346.05 L 463.12 340.87 C 461.80 339.81 459.87 340.02 458.81 341.34 C 457.75 342.66 457.96 344.59 459.28 345.65 L 465.72 350.83 L 460.54 357.27 C 459.48 358.59 459.69 360.52 461.01 361.58 C 462.33 362.64 464.26 362.43 465.32 361.11 L 470.50 354.67 L 476.94 359.85 C 478.26 360.91 480.19 360.70 481.25 359.38 C 482.31 358.06 482.10 356.13 480.78 355.07 Z" fill="#ffffff" fill-rule="nonzero" group-id="1,3" node-id="128" stroke="none" target-height="24.560028" target-width="24.559998" target-x="457.75" target-y="338.08"/></g></g></svg>