<?xml version="1.0" encoding="utf-8"?>
<!-- Generator: Adobe Illustrator 25.4.1, SVG Export Plug-In . SVG Version: 6.00 Build 0)  -->
<svg version="1.1" id="图层_1" xmlns="http://www.w3.org/2000/svg" xmlns:xlink="http://www.w3.org/1999/xlink" x="0px" y="0px" width="512px" height="512px"
	 viewBox="0 0 512 512" style="enable-background:new 0 0 512 512;" xml:space="preserve">
<style type="text/css">
	.st0{fill:url(#SVGID_1_);}
	.st1{fill:url(#SVGID_00000026143775433741062010000014937808809779914417_);}
	.st2{fill:url(#SVGID_00000181765496433622939660000015357535949994767235_);}
	.st3{fill:#FFFFFF;}
	.st4{opacity:3.000000e-02;enable-background:new    ;}
	.st5{fill:url(#SVGID_00000040549765698989297930000010041715915901080254_);}
	.st6{fill:url(#SVGID_00000167362340303425630490000010764468782074898059_);}
	.st7{fill:url(#SVGID_00000052805649967705969570000008343809081437610368_);}
	.st8{fill:url(#SVGID_00000080191115145713866590000009686114533672336551_);}
	.st9{fill:url(#SVGID_00000143576914942306347790000005963195718177414567_);}
	.st10{fill:url(#SVGID_00000008830549366303438570000001690025602791636148_);}
	.st11{fill:url(#SVGID_00000114059434278476206390000004261842790164618934_);}
	.st12{fill:url(#SVGID_00000062179149615307698670000009843069919131803010_);}
	.st13{fill:url(#SVGID_00000125585323663354310110000015772405137985260935_);}
	.st14{fill:url(#SVGID_00000070099483603686214330000015821889515649884302_);}
	.st15{fill:url(#SVGID_00000052078385656662679260000008195573552063052165_);}
	.st16{fill:url(#SVGID_00000112627837308990666080000010547610466024275378_);}
	.st17{fill:url(#SVGID_00000163751974640087661410000007928244811226112911_);}
	.st18{fill:url(#SVGID_00000098922623703462203080000017495262012143009720_);}
	.st19{fill:url(#SVGID_00000072272607180999250500000002466589696916297862_);}
	.st20{fill:url(#SVGID_00000043456818696718504060000011664057392835761080_);}
	.st21{fill:url(#SVGID_00000159449552419110193060000006655812623729633931_);}
	.st22{fill:url(#SVGID_00000112616690516882053190000010570369626812682394_);}
	.st23{fill:url(#SVGID_00000096759089234839908880000000556088746760940203_);}
	.st24{fill:url(#SVGID_00000168117802554094977960000004858038689807553417_);}
	.st25{fill:url(#SVGID_00000052815708932513193550000007185392010760785322_);}
	.st26{fill:url(#SVGID_00000094601143997729016590000008931973703416754094_);}
	.st27{fill:url(#SVGID_00000040544079198077923930000017246449629003357863_);}
	.st28{fill:url(#SVGID_00000180343154734375199820000011385653183290280331_);}
	.st29{fill:url(#SVGID_00000018197658881807735190000000279462270207443130_);}
	.st30{fill:url(#SVGID_00000074421581730291965580000003072861577457974946_);}
	.st31{fill:url(#SVGID_00000016753646685148314360000009581194955180516737_);}
	.st32{fill:url(#SVGID_00000091718216110288721130000014029704981887675272_);}
	.st33{fill:url(#SVGID_00000127737866496101073950000017072484266656823701_);}
	.st34{fill:url(#SVGID_00000128473870138645776350000015727498550211755686_);}
	.st35{fill:url(#SVGID_00000045621438937427257340000013543833862233589415_);}
	.st36{fill:#FFDAD9;}
	.st37{fill:#373A50;}
	.st38{fill:#3A4AC3;}
	.st39{fill:#FECDCB;}
	.st40{fill:#111228;}
	.st41{fill:#EAC250;}
	.st42{fill:#FADF68;}
	.st43{fill:#B2C7FF;}
	.st44{fill:url(#SVGID_00000025424833263733014100000000314696333501687434_);}
	.st45{fill:#3DCFA4;}
	.st46{fill:#30BB93;}
	.st47{fill:url(#SVGID_00000133502793540529165540000003478457907142032817_);}
	.st48{fill:url(#SVGID_00000031173419568897398370000014843053470665771682_);}
</style>
<g id="SvgjsG1008">
	
		<linearGradient id="SVGID_1_" gradientUnits="userSpaceOnUse" x1="205.5252" y1="505.5984" x2="346.748" y2="102.4742" gradientTransform="matrix(0.9167 0 0 -0.9167 4.75 503)">
		<stop  offset="0" style="stop-color:#CEDCF9;stop-opacity:0"/>
		<stop  offset="1" style="stop-color:#C3D2FF"/>
	</linearGradient>
	<path class="st0" d="M451.9,360.3H61.8c-48.6,0-70.9-55.2-33.7-83.6c0.3-0.2,0.6-0.5,0.9-0.7c8.5-6.4,14-15.7,14-29.3
		c3.3-17.9-14.9-22.6-19.8-53.6c-8.6-54.5,20.6-90.3,53.3-108.5c108.9-60.7,315.6-60.7,404.6-2c17.1,11.3,26.2,43.3,19.3,58.4
		c-42.6,93-19.5,118.2-1.7,151C515.9,323.4,490.6,360.3,451.9,360.3L451.9,360.3z"/>
	
		<linearGradient id="SVGID_00000034777718498985871820000001801438882503094930_" gradientUnits="userSpaceOnUse" x1="272.2828" y1="70.3744" x2="274.4849" y2="160.6609" gradientTransform="matrix(0.9167 0 0 -0.9167 4.75 503)">
		<stop  offset="0" style="stop-color:#CEDCF9;stop-opacity:0"/>
		<stop  offset="1" style="stop-color:#C3D2FF"/>
	</linearGradient>
	<path style="fill:url(#SVGID_00000034777718498985871820000001801438882503094930_);" d="M502.3,409.6v1.3
		c-0.2,26.8-38.8,40.1-174.8,39.5c-17.8-0.1-36.5-0.4-55.4-1c-10.1,13.8-65.1,24.2-131.5,23.9C67.2,472.9,7.8,459.6,7.9,443.6
		c0-1.9,0.9-3.8,2.5-5.5c6.9-7.7,6.4-18.3-0.4-26.1c-2.3-2.6-2.2-4.3-2.1-6.3c0.9-25.4,22.1-45.3,47.4-45.3l397,0.2
		C479.5,360.5,502,382.3,502.3,409.6L502.3,409.6z"/>
	
		<linearGradient id="SVGID_00000172417743415906919970000009173146961685677187_" gradientUnits="userSpaceOnUse" x1="480.0243" y1="371.4763" x2="502.0775" y2="371.4763" gradientTransform="matrix(0.9167 0 0 -0.9167 4.75 503)">
		<stop  offset="0" style="stop-color:#D1DEFF"/>
		<stop  offset="1" style="stop-color:#B2C7FF"/>
	</linearGradient>
	<path style="fill:url(#SVGID_00000172417743415906919970000009173146961685677187_);" d="M465,267.4c0,6.6-5.4,12-12,12h-8.2V45.6
		h8.3c6.2,0,11.3,4.7,11.9,10.8C465,57.5,465,47.5,465,267.4L465,267.4z"/>
	<path class="st3" d="M459.9,57.6v209.9c0,6.6-5.4,12-12,12c0,0,0,0,0,0H227.1c-6.6,0-12-5.4-12-12V57.6c0-6.6,5.4-12,12-12h220.8
		C454.5,45.6,459.9,50.9,459.9,57.6L459.9,57.6z"/>
	<path class="st4" d="M440.4,241.3v38.1H273.6v-38.1c0-4.5,3.7-8.2,8.2-8.2c0,0,0,0,0,0h150.5C436.7,233.2,440.4,236.8,440.4,241.3
		C440.4,241.3,440.4,241.3,440.4,241.3L440.4,241.3z M457.4,85.9v129.6H329.7c-4.7,0-8.6-3.8-8.6-8.6V94.5c0-4.7,3.8-8.6,8.6-8.6
		c0,0,0,0,0,0H457.4L457.4,85.9z"/>
	
		<linearGradient id="SVGID_00000003100963075641887370000003648156954458503347_" gradientUnits="userSpaceOnUse" x1="229.5132" y1="485.7987" x2="496.5344" y2="485.7987" gradientTransform="matrix(0.9167 0 0 -0.9167 4.75 503)">
		<stop  offset="0" style="stop-color:#D1DEFF"/>
		<stop  offset="1" style="stop-color:#B2C7FF"/>
	</linearGradient>
	<path style="fill:url(#SVGID_00000003100963075641887370000003648156954458503347_);" d="M459.9,57.5v12.3H215.1V57.5
		c0-6.6,5.3-12,11.9-12H448C454.6,45.6,459.9,50.9,459.9,57.5L459.9,57.5z"/>
	<path class="st3" d="M231.2,58.3c0,2.1-1.6,3.8-3.7,3.9c-2.1,0-3.8-1.6-3.9-3.7c0-0.1,0-0.1,0-0.2c0-2.1,1.7-3.8,3.8-3.8
		S231.1,56.2,231.2,58.3C231.2,58.3,231.2,58.3,231.2,58.3z M241.5,58.3c0,2.1-1.6,3.8-3.7,3.9c-2.1,0-3.8-1.6-3.9-3.7
		c0-0.1,0-0.1,0-0.2c0-2.1,1.7-3.8,3.8-3.8C239.8,54.5,241.5,56.2,241.5,58.3C241.5,58.3,241.5,58.3,241.5,58.3z M251.9,58.3
		c0,2.1-1.6,3.8-3.7,3.9c-2.1,0-3.8-1.6-3.9-3.7c0-0.1,0-0.1,0-0.2c0-2.1,1.7-3.8,3.8-3.8S251.9,56.2,251.9,58.3
		C251.9,58.3,251.9,58.3,251.9,58.3z"/>
	
		<linearGradient id="SVGID_00000023970957190856264750000002576001488485845911_" gradientUnits="userSpaceOnUse" x1="272.8351" y1="425.2548" x2="294.4284" y2="425.2548" gradientTransform="matrix(0.9167 0 0 -0.9167 4.75 503)">
		<stop  offset="0" style="stop-color:#EBF2FF"/>
		<stop  offset="1" style="stop-color:#E1E8FF"/>
	</linearGradient>
	<path style="fill:url(#SVGID_00000023970957190856264750000002576001488485845911_);" d="M264.7,113.2L264.7,113.2L264.7,113.2
		L264.7,113.2z"/>
	
		<linearGradient id="SVGID_00000160897735557659843010000013284599530396990112_" gradientUnits="userSpaceOnUse" x1="272.8372" y1="322.1758" x2="289.8797" y2="322.1758" gradientTransform="matrix(0.9167 0 0 -0.9167 4.75 503)">
		<stop  offset="0" style="stop-color:#EBF2FF"/>
		<stop  offset="1" style="stop-color:#E1E8FF"/>
	</linearGradient>
	<path style="fill:url(#SVGID_00000160897735557659843010000013284599530396990112_);" d="M264.8,207.7L264.8,207.7L264.8,207.7
		L264.8,207.7z"/>
	
		<linearGradient id="SVGID_00000138530943784844861050000016393246926660048020_" gradientUnits="userSpaceOnUse" x1="263.8016" y1="373.6374" x2="273.8896" y2="374.1102" gradientTransform="matrix(0.9167 0 0 -0.9167 4.75 503)">
		<stop  offset="0" style="stop-color:#D1DEFF"/>
		<stop  offset="1" style="stop-color:#B2C7FF"/>
	</linearGradient>
	<path style="fill:url(#SVGID_00000138530943784844861050000016393246926660048020_);" d="M254.8,189v-57.2h-13.4l0,0h0V189h0l0,0
		H254.8z"/>
	
		<linearGradient id="SVGID_00000108993830155719727770000005409156107263535280_" gradientUnits="userSpaceOnUse" x1="307.9518" y1="374.545" x2="288.624" y2="371.9579" gradientTransform="matrix(0.9167 0 0 -0.9167 4.75 503)">
		<stop  offset="0" style="stop-color:#D1DEFF"/>
		<stop  offset="1" style="stop-color:#B2C7FF"/>
	</linearGradient>
	<path style="fill:url(#SVGID_00000108993830155719727770000005409156107263535280_);" d="M274.6,131.8V189h13.4v-57.2H274.6z"/>
	
		<linearGradient id="SVGID_00000070839833667015245910000007851888966442664625_" gradientUnits="userSpaceOnUse" x1="258.1907" y1="415.0907" x2="309.0728" y2="415.0907" gradientTransform="matrix(0.9167 0 0 -0.9167 4.75 503)">
		<stop  offset="0" style="stop-color:#EBF2FF"/>
		<stop  offset="1" style="stop-color:#E1E8FF"/>
	</linearGradient>
	<path style="fill:url(#SVGID_00000070839833667015245910000007851888966442664625_);" d="M274.6,131.8h13.4l-23.3-18.6L274.6,131.8
		L274.6,131.8z"/>
	
		<linearGradient id="SVGID_00000036942921489659249410000013936760276217833379_" gradientUnits="userSpaceOnUse" x1="258.1928" y1="415.0928" x2="309.0644" y2="415.0928" gradientTransform="matrix(0.9167 0 0 -0.9167 4.75 503)">
		<stop  offset="0" style="stop-color:#EBF2FF"/>
		<stop  offset="1" style="stop-color:#E1E8FF"/>
	</linearGradient>
	<path style="fill:url(#SVGID_00000036942921489659249410000013936760276217833379_);" d="M254.9,131.8l9.9-18.6l0,0l-23.3,18.6
		H254.9L254.9,131.8z"/>
	
		<linearGradient id="SVGID_00000173123519636049499490000005095672741832525961_" gradientUnits="userSpaceOnUse" x1="272.8351" y1="373.7153" x2="294.4284" y2="373.7153" gradientTransform="matrix(0.9167 0 0 -0.9167 4.75 503)">
		<stop  offset="0" style="stop-color:#EBF2FF"/>
		<stop  offset="1" style="stop-color:#E1E8FF"/>
	</linearGradient>
	<path style="fill:url(#SVGID_00000173123519636049499490000005095672741832525961_);" d="M274.6,189v-57.2h-19.8V189h0H274.6z"/>
	
		<linearGradient id="SVGID_00000036946040262659212630000009236926632040213888_" gradientUnits="userSpaceOnUse" x1="272.8383" y1="415.0917" x2="294.4263" y2="415.0917" gradientTransform="matrix(0.9167 0 0 -0.9167 4.75 503)">
		<stop  offset="0" style="stop-color:#D1DEFF"/>
		<stop  offset="1" style="stop-color:#B2C7FF"/>
	</linearGradient>
	<path style="fill:url(#SVGID_00000036946040262659212630000009236926632040213888_);" d="M274.6,131.8l-9.9-18.6l0,0l-9.9,18.6
		H274.6z"/>
	
		<linearGradient id="SVGID_00000018917185653590521290000000931401770342615991_" gradientUnits="userSpaceOnUse" x1="258.2034" y1="332.3379" x2="309.0728" y2="332.3379" gradientTransform="matrix(0.9167 0 0 -0.9167 4.75 503)">
		<stop  offset="0" style="stop-color:#EBF2FF"/>
		<stop  offset="1" style="stop-color:#E1E8FF"/>
	</linearGradient>
	<path style="fill:url(#SVGID_00000018917185653590521290000000931401770342615991_);" d="M274.6,189l-9.9,18.6l0,0l23.3-18.6H274.6
		L274.6,189z"/>
	
		<linearGradient id="SVGID_00000091712714160547852340000007796922074025152156_" gradientUnits="userSpaceOnUse" x1="258.1939" y1="332.34" x2="309.0781" y2="332.34" gradientTransform="matrix(0.9167 0 0 -0.9167 4.75 503)">
		<stop  offset="0" style="stop-color:#EBF2FF"/>
		<stop  offset="1" style="stop-color:#E1E8FF"/>
	</linearGradient>
	<path style="fill:url(#SVGID_00000091712714160547852340000007796922074025152156_);" d="M254.8,189h-13.4l23.3,18.6L254.8,189
		L254.8,189z"/>
	
		<linearGradient id="SVGID_00000092457794754502051220000014925963131507452325_" gradientUnits="userSpaceOnUse" x1="272.8404" y1="332.339" x2="294.4273" y2="332.339" gradientTransform="matrix(0.9167 0 0 -0.9167 4.75 503)">
		<stop  offset="0" style="stop-color:#D1DEFF"/>
		<stop  offset="1" style="stop-color:#B2C7FF"/>
	</linearGradient>
	<path style="fill:url(#SVGID_00000092457794754502051220000014925963131507452325_);" d="M254.9,189l9.9,18.6l0,0l9.9-18.6H254.9z"
		/>
	
		<linearGradient id="SVGID_00000052797085629074992990000006426507139226341006_" gradientUnits="userSpaceOnUse" x1="508.778" y1="388.3243" x2="513.7342" y2="388.3243" gradientTransform="matrix(0.9167 0 0 -0.9167 4.75 503)">
		<stop  offset="0" style="stop-color:#909EFF"/>
		<stop  offset="1" style="stop-color:#6977E3"/>
	</linearGradient>
	<path style="fill:url(#SVGID_00000052797085629074992990000006426507139226341006_);" d="M470.9,82.2H460v129.6h10.8
		c4.7,0,8.6-3.8,8.6-8.6V90.8C479.5,86.1,475.6,82.2,470.9,82.2L470.9,82.2z"/>
	
		<linearGradient id="SVGID_00000008864640175384968870000000006768683839901118_" gradientUnits="userSpaceOnUse" x1="459.6716" y1="416.4086" x2="377.6497" y2="335.7733" gradientTransform="matrix(0.9167 0 0 -0.9167 4.75 503)">
		<stop  offset="0" style="stop-color:#909EFF"/>
		<stop  offset="1" style="stop-color:#6977E3"/>
	</linearGradient>
	<path style="fill:url(#SVGID_00000008864640175384968870000000006768683839901118_);" d="M475.1,90.8v112.4c0,4.7-3.8,8.6-8.6,8.6
		H333.4c-4.7,0-8.6-3.8-8.6-8.6V90.8c0-4.7,3.8-8.6,8.6-8.6h133.1C471.2,82.2,475.1,86.1,475.1,90.8z"/>
	<path class="st3" d="M335.5,100.7h71.4v4h-71.4V100.7z M335.5,109.9H357v4h-21.5V109.9z M412.6,109.9h17.8v4h-17.8V109.9z
		 M436.9,109.9h27.5v4h-27.5V109.9z M366.3,109.9h32.8v4h-32.8V109.9z M335.5,119.1h35.2v4h-35.2V119.1z M380.6,119.1h21.6v4h-21.6
		V119.1z M352.2,128.4H375v4h-22.7V128.4z M383.7,128.4H394v4h-10.2V128.4z M400.7,128.4h20.9v4h-20.9V128.4z M430.5,128.4h10.8v4
		h-10.8V128.4z M448,128.4h16.4v4H448L448,128.4z M354.1,137.6h14.2v4h-14.2V137.6z M376.8,137.6h25v4h-25V137.6z M369.8,146.8h22.5
		v4h-22.5V146.8z M352.2,166.9H372v4h-19.8V166.9z M381,166.9h10.4v4H381V166.9z M424.9,166.9h14v4h-14V166.9z M444.1,166.9h17v4
		h-17V166.9z M400,166.9h18.5v4H400V166.9z M381,176.1h20.5v4H381V176.1z M422.8,176.1h20.5v4h-20.5V176.1z M352.2,176.1H372v4
		h-19.8V176.1z M381,185.3h13.1v4H381V185.3z M446.3,185.3H463v4h-16.6V185.3z M432.2,185.3h10.3v4h-10.3V185.3z M401.2,185.3h20.5
		v4h-20.5V185.3z M352.2,185.3H372v4h-19.8V185.3z M352.2,194.6H372v4h-19.8V194.6z M381,194.6h40.1v4H381V194.6z M426.9,194.6h22.6
		v4h-22.6V194.6z"/>
	
		<linearGradient id="SVGID_00000173872523759281853100000002792180349114437539_" gradientUnits="userSpaceOnUse" x1="242.8524" y1="442.7375" x2="248.7722" y2="442.7375" gradientTransform="matrix(0.9167 0 0 -0.9167 4.75 503)">
		<stop  offset="0" style="stop-color:#D1DEFF"/>
		<stop  offset="1" style="stop-color:#B2C7FF"/>
	</linearGradient>
	<path style="fill:url(#SVGID_00000173872523759281853100000002792180349114437539_);" d="M228.8,91.2c0,2.7,1.4,5.2-1.3,5.2h-0.1
		v1.4h0.1c2.7,0,1.3,2.7,1.3,5.2c0,2.1,1.2,3.2,3.4,3.2h0.6v-1.5h-0.5c-1.1,0-1.6-0.6-1.6-1.8c0-1.8,1.2-4.9-1.1-5.8
		c2.2-0.9,1.1-3.9,1.1-5.7c0-1.2,0.5-1.8,1.6-1.8h0.5v-1.5h-0.6C230,88.1,228.8,89.2,228.8,91.2L228.8,91.2z"/>
	
		<linearGradient id="SVGID_00000114038645479440873110000010724850275434254765_" gradientUnits="userSpaceOnUse" x1="270.3369" y1="442.7375" x2="276.2556" y2="442.7375" gradientTransform="matrix(0.9167 0 0 -0.9167 4.75 503)">
		<stop  offset="0" style="stop-color:#D1DEFF"/>
		<stop  offset="1" style="stop-color:#B2C7FF"/>
	</linearGradient>
	<path style="fill:url(#SVGID_00000114038645479440873110000010724850275434254765_);" d="M257.8,96.4c-2.7,0-1.3-2.6-1.3-5.2
		c0-1.9-1.2-3.1-3.4-3.1h-0.6v1.5h0.5c1.1,0,1.6,0.6,1.6,1.8c0,1.8-1.2,4.8,1,5.7c-2.3,0.9-1,4-1,5.8c0,2.2-1.9,1.7-2.2,1.8v1.5
		c0.6-0.1,4,0.4,4-3.2c0-2.4-1.4-5.2,1.3-5.2h0.1v-1.4H257.8z"/>
	
		<linearGradient id="SVGID_00000107550647704019053430000013661977670774520708_" gradientUnits="userSpaceOnUse" x1="251.2281" y1="447.5784" x2="267.8578" y2="447.5784" gradientTransform="matrix(0.9167 0 0 -0.9167 4.75 503)">
		<stop  offset="0" style="stop-color:#D1DEFF"/>
		<stop  offset="1" style="stop-color:#B2C7FF"/>
	</linearGradient>
	<path style="fill:url(#SVGID_00000107550647704019053430000013661977670774520708_);" d="M235,91.9h15.2v1.7H235V91.9z"/>
	
		<linearGradient id="SVGID_00000071556308236251440900000000148491242960025510_" gradientUnits="userSpaceOnUse" x1="251.2281" y1="443.3372" x2="267.8578" y2="443.3372" gradientTransform="matrix(0.9167 0 0 -0.9167 4.75 503)">
		<stop  offset="0" style="stop-color:#D1DEFF"/>
		<stop  offset="1" style="stop-color:#B2C7FF"/>
	</linearGradient>
	<path style="fill:url(#SVGID_00000071556308236251440900000000148491242960025510_);" d="M235,95.8h15.2v1.7H235V95.8z"/>
	
		<linearGradient id="SVGID_00000155828823656850929080000012138467858743546756_" gradientUnits="userSpaceOnUse" x1="251.2281" y1="439.0959" x2="267.8578" y2="439.0959" gradientTransform="matrix(0.9167 0 0 -0.9167 4.75 503)">
		<stop  offset="0" style="stop-color:#D1DEFF"/>
		<stop  offset="1" style="stop-color:#B2C7FF"/>
	</linearGradient>
	<path style="fill:url(#SVGID_00000155828823656850929080000012138467858743546756_);" d="M235,99.6h5.3v1.7H235V99.6z"/>
	
		<linearGradient id="SVGID_00000181769517394257425850000006505050228999860626_" gradientUnits="userSpaceOnUse" x1="254.4603" y1="439.0959" x2="264.8815" y2="439.0959" gradientTransform="matrix(0.9167 0 0 -0.9167 4.75 503)">
		<stop  offset="0" style="stop-color:#D1DEFF"/>
		<stop  offset="1" style="stop-color:#B2C7FF"/>
	</linearGradient>
	<path style="fill:url(#SVGID_00000181769517394257425850000006505050228999860626_);" d="M243,99.6h4.6v1.7H243V99.6z"/>
	
		<linearGradient id="SVGID_00000139278945408068497250000001903070577614087582_" gradientUnits="userSpaceOnUse" x1="304.8654" y1="319.6544" x2="317.073" y2="319.6544" gradientTransform="matrix(0.9167 0 0 -0.9167 4.75 503)">
		<stop  offset="0" style="stop-color:#D1DEFF"/>
		<stop  offset="1" style="stop-color:#B2C7FF"/>
	</linearGradient>
	<path style="fill:url(#SVGID_00000139278945408068497250000001903070577614087582_);" d="M287.4,212.5l-1.4,4.2h-1.8l4.5-13.4h2.1
		l4.6,13.4h-1.8l-1.4-4.2L287.4,212.5L287.4,212.5z M291.8,211.1c-1.3-4-1.3-3.5-2-6.3h0c-0.7,2.8-1,3.3-2,6.3H291.8L291.8,211.1z"
		/>
	
		<linearGradient id="SVGID_00000129172171883977425720000004889688222089084807_" gradientUnits="userSpaceOnUse" x1="319.0043" y1="319.9252" x2="329.0037" y2="319.9252" gradientTransform="matrix(0.9167 0 0 -0.9167 4.75 503)">
		<stop  offset="0" style="stop-color:#D1DEFF"/>
		<stop  offset="1" style="stop-color:#B2C7FF"/>
	</linearGradient>
	<path style="fill:url(#SVGID_00000129172171883977425720000004889688222089084807_);" d="M297.2,216.7c0.1-2.4,0-3.7,0.1-14.1h1.7
		v6h0c0.6-1.1,1.7-1.8,3.3-1.8c2.4,0,4.1,2,4,4.9c0,3.4-2.2,5.1-4.3,5.1c-1.4,0-2.5-0.5-3.2-1.8h-0.1l-0.1,1.6L297.2,216.7
		L297.2,216.7z M299,212.8c0,1.3,1.1,2.7,2.7,2.7c1.8,0,2.9-1.5,2.9-3.7c0-1.9-1-3.6-2.9-3.6c-1.6,0-2.8,1.4-2.8,2.9L299,212.8
		L299,212.8z"/>
	
		<linearGradient id="SVGID_00000165955897967014854170000013931476871540941752_" gradientUnits="userSpaceOnUse" x1="330.6534" y1="317.5983" x2="338.9212" y2="317.5983" gradientTransform="matrix(0.9167 0 0 -0.9167 4.75 503)">
		<stop  offset="0" style="stop-color:#D1DEFF"/>
		<stop  offset="1" style="stop-color:#B2C7FF"/>
	</linearGradient>
	<path style="fill:url(#SVGID_00000165955897967014854170000013931476871540941752_);" d="M315.4,216.3c-0.5,0.2-1.5,0.6-2.8,0.6
		c-2.9,0-4.8-2-4.8-4.9c0-3,2-5.1,5.2-5.1c1,0,1.9,0.3,2.4,0.5l-0.4,1.3c-0.4-0.2-1.1-0.5-2-0.5c-2.2,0-3.4,1.6-3.4,3.6
		c0,2.2,1.4,3.6,3.3,3.6c1,0,1.6-0.3,2.1-0.5L315.4,216.3z"/>
	
		<linearGradient id="SVGID_00000054231145957008833690000007760247966420631460_" gradientUnits="userSpaceOnUse" x1="387.3379" y1="243.9319" x2="387.3379" y2="318.6834" gradientTransform="matrix(0.9167 0 0 -0.9167 4.75 503)">
		<stop  offset="0" style="stop-color:#EBF2FF"/>
		<stop  offset="0.627" style="stop-color:#E7EEFF"/>
		<stop  offset="1" style="stop-color:#E1E8FF"/>
	</linearGradient>
	<path style="fill:url(#SVGID_00000054231145957008833690000007760247966420631460_);" d="M443.2,236.9v52.2c0,4.5-3.7,8.2-8.2,8.2
		l0,0H284.6c-4.5,0-8.2-3.7-8.2-8.2l0,0v-52.2c0-4.5,3.7-8.2,8.2-8.2c0,0,0,0,0,0h150.5C439.6,228.7,443.2,232.4,443.2,236.9
		C443.2,236.9,443.2,236.9,443.2,236.9z"/>
	
		<linearGradient id="SVGID_00000138556704245624997180000003184792461797000097_" gradientUnits="userSpaceOnUse" x1="323.0325" y1="261.8351" x2="323.0325" y2="288.4427" gradientTransform="matrix(0.9167 0 0 -0.9167 4.75 503)">
		<stop  offset="0" style="stop-color:#D1DEFF"/>
		<stop  offset="1" style="stop-color:#B2C7FF"/>
	</linearGradient>
	<path style="fill:url(#SVGID_00000138556704245624997180000003184792461797000097_);" d="M313.1,240.7v20.2c0,1.2-0.9,2.1-2.1,2.1
		h-20.2c-1.2,0-2.1-0.9-2.1-2.1v-20.2c0-1.2,0.9-2.1,2.1-2.1H311C312.1,238.6,313.1,239.5,313.1,240.7L313.1,240.7z"/>
	
		<linearGradient id="SVGID_00000176759498077843710110000005317035059345582256_" gradientUnits="userSpaceOnUse" x1="406.2807" y1="281.1818" x2="406.2807" y2="278.0131" gradientTransform="matrix(0.9167 0 0 -0.9167 4.75 503)">
		<stop  offset="0" style="stop-color:#D1DEFF"/>
		<stop  offset="1" style="stop-color:#B2C7FF"/>
	</linearGradient>
	<path style="fill:url(#SVGID_00000176759498077843710110000005317035059345582256_);" d="M323.4,243.2H431v3H323.4V243.2z"/>
	
		<linearGradient id="SVGID_00000181082841018400136570000004430183300454208923_" gradientUnits="userSpaceOnUse" x1="406.2807" y1="272.1875" x2="406.2807" y2="269.0187" gradientTransform="matrix(0.9167 0 0 -0.9167 4.75 503)">
		<stop  offset="0" style="stop-color:#D1DEFF"/>
		<stop  offset="1" style="stop-color:#B2C7FF"/>
	</linearGradient>
	<path style="fill:url(#SVGID_00000181082841018400136570000004430183300454208923_);" d="M323.4,251.4H431v3H323.4V251.4z"/>
	
		<linearGradient id="SVGID_00000074402153910262008320000010804054311220402835_" gradientUnits="userSpaceOnUse" x1="406.2807" y1="263.1931" x2="406.2807" y2="260.0254" gradientTransform="matrix(0.9167 0 0 -0.9167 4.75 503)">
		<stop  offset="0" style="stop-color:#D1DEFF"/>
		<stop  offset="1" style="stop-color:#B2C7FF"/>
	</linearGradient>
	<path style="fill:url(#SVGID_00000074402153910262008320000010804054311220402835_);" d="M323.4,259.7H431v3H323.4V259.7z"/>
	
		<linearGradient id="SVGID_00000075882384797599314840000001757960441543307144_" gradientUnits="userSpaceOnUse" x1="387.5807" y1="254.1997" x2="387.5807" y2="251.031" gradientTransform="matrix(0.9167 0 0 -0.9167 4.75 503)">
		<stop  offset="0" style="stop-color:#D1DEFF"/>
		<stop  offset="1" style="stop-color:#B2C7FF"/>
	</linearGradient>
	<path style="fill:url(#SVGID_00000075882384797599314840000001757960441543307144_);" d="M289.1,267.9H431v3H289.1V267.9z"/>
	
		<linearGradient id="SVGID_00000103953116838801292870000018430327570067851432_" gradientUnits="userSpaceOnUse" x1="387.5807" y1="245.2054" x2="387.5807" y2="242.0366" gradientTransform="matrix(0.9167 0 0 -0.9167 4.75 503)">
		<stop  offset="0" style="stop-color:#D1DEFF"/>
		<stop  offset="1" style="stop-color:#B2C7FF"/>
	</linearGradient>
	<path style="fill:url(#SVGID_00000103953116838801292870000018430327570067851432_);" d="M289.1,276.2H431v3H289.1V276.2z"/>
	
		<linearGradient id="SVGID_00000124163281303297199680000007785172979799395464_" gradientUnits="userSpaceOnUse" x1="387.5807" y1="236.211" x2="387.5807" y2="233.0433" gradientTransform="matrix(0.9167 0 0 -0.9167 4.75 503)">
		<stop  offset="0" style="stop-color:#D1DEFF"/>
		<stop  offset="1" style="stop-color:#B2C7FF"/>
	</linearGradient>
	<path style="fill:url(#SVGID_00000124163281303297199680000007785172979799395464_);" d="M289.1,284.4H431v3H289.1V284.4z"/>
	<path class="st3" d="M423,143.5c-0.4-0.4-1-0.6-1.8-0.3l-10.4,4.7c-0.7,0.4-1.3,1-1.3,1.8v0.2c0,0.8,0.5,1.5,1.3,1.9l10.4,4.7l0,0
		c0.6,0.2,1.3,0.1,1.7-0.3c0.8-0.8,0.5-2.2-0.6-2.6l-8.3-3.7l8.2-3.7C423.6,145.6,423.8,144.3,423,143.5L423,143.5z M432.1,138.1
		l-6.9,20.2c-0.4,1.2,0.4,2.2,1.5,2.2c0.7,0,1.3-0.4,1.5-1.1l6.9-20.2c0.2-0.7,0.1-1.3-0.3-1.7C434,136.7,432.5,136.9,432.1,138.1
		L432.1,138.1z M449.4,147.8l-10.4-4.7c-1-0.4-2.2,0.3-2.2,1.5c0,0.7,0.5,1.3,1,1.5l8.3,3.7l-8.2,3.7c-1.1,0.5-1.4,1.8-0.6,2.6
		c0.5,0.5,1.2,0.6,1.8,0.3l10.4-4.7c0.7-0.3,1.3-1,1.3-1.8v-0.2C450.6,148.8,450.1,148.2,449.4,147.8L449.4,147.8z"/>
	<path class="st36" d="M152.6,422.9l-15.7-0.2l1-14.9l15.1,0.5l-0.3,14.5C152.7,422.8,152.7,422.9,152.6,422.9L152.6,422.9z"/>
	<path class="st37" d="M136.5,422.3l-2.7,11.3c-0.4,2.1,1,4.2,3.1,4.6c0.2,0,0.4,0.1,0.6,0.1c10,0.3,29.7,0,33.3,0
		c0.3,0,0.5-0.2,0.5-0.5c0.2-3.5-2.1-5.7-5.5-7.4l-13.1-8.8c0,0-0.1,0-0.1,0L136.5,422.3L136.5,422.3z"/>
	<path class="st36" d="M89.8,415l-13-8.8l9-11.9l12.4,8.7L90,415C89.9,415,89.8,415,89.8,415z"/>
	<path class="st37" d="M76.7,405.6l-8.5,8c-1.5,1.6-1.5,4.1,0,5.6c0.2,0.1,0.3,0.3,0.5,0.4c8.2,5.8,24.8,16.3,27.8,18.3
		c0.2,0.2,0.6,0.1,0.7-0.1c2-2.8,1.3-5.9-0.6-9.2L90.7,414c0,0,0,0-0.1-0.1L76.7,405.6z M56.2,344.5h2.6V426h-2.6V344.5z"/>
	<path class="st38" d="M106.3,333.3l-25.6,64.8l14.1,11.4l33-52.2C122.2,343.2,116.1,330.8,106.3,333.3z"/>
	<path class="st38" d="M32.1,300.4l-2.6,20.6c-0.3,9.4,7.3,17.2,16.7,17.2h66.1l22.5,77.7c0.3,3.3,20.7,1.7,20.5-1.6
		c0,0-7.8-90.1-17.4-98.3c-12.7-10.8-63.9-15.2-63.9-15.2L32.1,300.4L32.1,300.4z"/>
	<path class="st36" d="M85,214.3c-0.4,0.4-0.8,1.6-1.2,3.1c-1.3,4.7-2.6,12.9-2.6,12.9l-16.1-11.1c5.9-8.5,7.9-14.7,7.9-14.7
		s1.2,0.3,2.9,0.9C80.5,206.9,88.5,210.3,85,214.3L85,214.3z"/>
	<path class="st39" d="M85,214.3c-0.4,0.4-0.8,1.6-1.2,3.1c0,0-7.5-7.4-8.7-9.8c-0.4-0.7,0.1-1.5,0.9-2.3
		C80.5,206.9,88.5,210.3,85,214.3L85,214.3z"/>
	<path class="st36" d="M102.6,201.9c0,1.1-2.5,1.3-2.5,1.3s-0.1,1.8-0.5,4.1c-0.4,2.4-1.2,6.5-3,8.2c-1.5,1.5-17.7,0.7-23.6-11
		l-5.6-7.6l4.1-15.3c0,0,11.1-3.7,21.3-3.5c10.3,0.2,7.2,18.5,7.2,18.5S102.6,200.9,102.6,201.9z"/>
	<path class="st40" d="M73,204.5c0,0,0.4-2.2-0.6-4.8c-1.2-2.9-2.1-5.1-0.9-6.7c3.1-4.1,7.7,3.8,7.7,3.8l2.3-0.6l0.4-13
		c0,0,18.5,6.4,23.1,0s2.8-15.4-4-14c-6.7,1.4-16.5,1.8-16.5,1.8s-18.1-1.8-19.6,5.9C63.4,184.5,58.5,195.8,73,204.5L73,204.5z"/>
	<path class="st36" d="M158.8,257.1c0,0,3.6,6.6,1.6,8c-4.2,2.9-14.7,1.6-14.7,1.6l3.9-9.6c0,0,1.8-10.4,4.5-9.3
		c2.7,1.1,1.7,5.6,1.7,5.6s12.8-6.4,14.2-4.2C171.6,251.6,158.8,257.1,158.8,257.1L158.8,257.1z"/>
	<path class="st41" d="M66,249.1c6.9,10,24.6,38.2,33.4,39.6c7.5,1.2,55.2-20.2,55.2-20.2l-5.1-12.9l-39.8,10c0,0-18.2-28-23.8-33.2
		C75.9,223.2,58.1,237.5,66,249.1L66,249.1z"/>
	<path class="st42" d="M86.3,276.9l2,25.5c0,1-8.8,2.9-19.7,4.8c-17.7,3-39,1.6-39,0c0,0,16.4-83.2,36.5-90.6
		c7.6-2.8,18.1,11.3,19.8,17.1C90.3,248.3,86.3,276.9,86.3,276.9z"/>
	<path class="st41" d="M92.9,277.1c-0.6,8.9-2.1,17.7-4.7,25.3c0,1-8.8,2.9-19.7,4.8c3.2-5.8,4.6-12.6,3.5-19.2
		c-1.9-11.1-10-20.4-12.5-31.4c-2.1-9.4-0.7-16.1,5.3-23.7c5.2,1.7,8.3,7.2,9.9,12.4c1.6,5.3,2.2,10.9,4.7,15.8
		c1.7,3.3,4.1,6.1,6.6,8.8C88.3,272.4,90.6,274.8,92.9,277.1L92.9,277.1z"/>
	<path class="st36" d="M153.7,293.2l-5.4-2.8l-13.1,0.2l0.6-8.4c0,0,5.3-5.4,7.8-3.2c2.3,2.1-0.4,3.6-0.7,3.8
		c0.6-0.1,12.7-0.3,12.7,2.8C155.4,292,153.7,293.2,153.7,293.2L153.7,293.2z"/>
	<path class="st42" d="M61.3,241.9c2.7,11.8,8.9,44.6,16.5,49.1c6.5,3.9,58.7,1.5,58.7,1.5v-12l-40.6-7.2c0,0-6.7-32.8-10-39.6
		C80,221.5,58.1,228.2,61.3,241.9L61.3,241.9z"/>
	<path class="st43" d="M105.6,341.1v3.1c0,1.6-1.3,2.9-2.9,2.9l0,0H27.2c-1.6,0-2.9-1.3-2.9-2.9l0,0v-3.1c0-1.6,1.3-2.9,2.9-2.9
		h75.5C104.3,338.2,105.6,339.5,105.6,341.1z"/>
	<path class="st43" d="M30.3,346.6l-3.1,0.5c-1.6,0.2-3.1-0.8-3.3-2.4c0,0,0,0,0,0L9.5,253.6c-0.2-1.6,0.8-3.1,2.4-3.3c0,0,0,0,0,0
		l3.1-0.5c1.6-0.2,3.1,0.8,3.3,2.4c0,0,0,0,0,0l14.3,91.1C32.9,344.9,31.8,346.4,30.3,346.6L30.3,346.6z"/>
	<path class="st37" d="M87.7,438.2c-0.3-1.6-1.6-2.9-3.3-3.1C71.6,434,58.9,426,58.9,426h-2.6c0,0-12.7,8-25.5,9.1
		c-1.7,0.1-3.1,1.4-3.3,3.1H87.7z M178.7,298.2h-41.5c0-1.2,0.5-2.3,1.3-3.1c0.8-0.8,1.9-1.3,3.1-1.3h32.9
		C176.8,293.9,178.7,295.8,178.7,298.2L178.7,298.2z M113.4,438.2L134,318.8c1.3-7.9,8.2-13.6,16.1-13.6h82.6
		c8,0,14.8,5.7,16.1,13.6l20.5,119.5h3.6l-20.7-120c-1.6-9.5-9.9-16.5-19.6-16.5h-82.6c-9.7,0-18,7-19.6,16.5l-20.6,120H113.4z"/>
	<path class="st43" d="M251.8,300.4v2.5c0,1.2-1,2.2-2.2,2.2c0,0,0,0,0,0H133.2c-1.2,0-2.2-1-2.2-2.2v-2.5c0-1.2,1-2.2,2.2-2.2
		h116.4C250.8,298.2,251.8,299.2,251.8,300.4C251.8,300.4,251.8,300.4,251.8,300.4z"/>
	<path d="M225.1,298.2h-20.8c-1,0-1.8-0.8-1.8-1.8c0-1,0.8-1.8,1.8-1.8c0,0,0,0,0,0h20.9c3,0,5.9-1.3,7.7-3.6
		c1.9-2.4,2.5-5.6,1.5-8.5L218,230.1l3.3-1l16.5,52.6c1.2,4,0.5,8.2-2,11.5C233.3,296.4,229.3,298.2,225.1,298.2L225.1,298.2z"/>
	<path class="st40" d="M224.1,216.3c1.2-3.1,5.9-1.4,5.1,1.8l-11.8,44.5c-0.1,0.2-0.1,0.4-0.2,0.6c-1.2,3.1-5.9,1.4-5.1-1.8
		l11.8-44.5C224,216.7,224,216.5,224.1,216.3L224.1,216.3z"/>
	<path class="st37" d="M230,197.7l-21.2,79.6c-1.2,4.7-6,7.4-10.7,6.2l21.2-79.6C220.6,199.2,225.4,196.4,230,197.7L230,197.7z"/>
	
		<ellipse transform="matrix(1.577711e-02 -0.9999 0.9999 1.577711e-02 -99.1767 289.0898)" class="st40" cx="97.3" cy="194.9" rx="2" ry="1"/>
	<path class="st40" d="M99,192.2c-1.3,0.1-1.5-0.3-2.6,0.2c-0.3,0.1-0.6,0.3-1,0.4c0.1-0.4,0.2-0.7,0.5-1c0.5-0.7,1.4-0.9,2.3-0.4
		C98.5,191.7,98.8,191.9,99,192.2L99,192.2z"/>
	<path class="st3" d="M99.6,207.3c-0.1,0.8-0.3,1.5-0.4,2.2h-0.1c-1.2,0-2.3-1-2.3-2.2H99.6z"/>
	
		<linearGradient id="SVGID_00000139993240601590721220000009238727683913569953_" gradientUnits="userSpaceOnUse" x1="1069.2556" y1="396.1426" x2="1127.2029" y2="396.1426" gradientTransform="matrix(-0.9167 0 0 -0.9167 1185.4561 503)">
		<stop  offset="0" style="stop-color:#D1DEFF"/>
		<stop  offset="1" style="stop-color:#B2C7FF"/>
	</linearGradient>
	<path style="fill:url(#SVGID_00000139993240601590721220000009238727683913569953_);" d="M199.1,156.9l0.9,5.8
		c0.1,0.8-0.5,1.4-1.3,1.3l-6.8-1.1c-4,2.3-8.6,3.5-13.2,3.5c-14.7,0-26.6-11.9-26.6-26.5c0-14.7,11.9-26.6,26.6-26.6
		s26.5,11.9,26.5,26.6C205.3,146.1,203.1,152.1,199.1,156.9L199.1,156.9z"/>
	<path class="st3" d="M195.8,143v-5.1H192c-0.3-1.8-1.1-3.5-2.1-5l2.6-2.6l-3.6-3.6l-2.6,2.6c-1.5-1-3.2-1.7-5-2.1v-3.7h-5.1v3.7
		c-1.8,0.3-3.5,1.1-5,2.1l-2.6-2.6l-3.6,3.6l2.6,2.6c-1,1.5-1.7,3.2-2.1,5h-3.7v5.1h3.7c0.4,1.8,1.1,3.5,2.1,5l-2.6,2.6l3.6,3.6
		l2.6-2.6c1.5,1,3.2,1.7,5,2.1v3.7h5.1v-3.7c1.8-0.3,3.5-1,5-2.1l2.6,2.6l3.6-3.6L190,148c1-1.5,1.7-3.2,2.1-5L195.8,143L195.8,143z
		 M178.7,147c-3.6,0-6.5-2.9-6.5-6.5c0-3.6,2.9-6.5,6.5-6.5c3.6,0,6.5,2.9,6.5,6.5C185.3,144,182.3,147,178.7,147z"/>
	<path class="st45" d="M373.4,383.8c0,0,26.5-23.2,26.3-28c-0.2-4.8-10.3-1.5-10.9-4.7c-0.7-3.2,15-16.1,12.8-18.8
		c-2.3-2.7-8.2,4.7-9.1,1.1c-0.9-3.6,10.5-21.9-2.1-23c-16.1-1.5-9.1,20-11.8,20.5c-3.3,0.7-8.4-5-13.7-0.3
		C355.7,338.9,373.4,383.8,373.4,383.8L373.4,383.8z"/>
	<path class="st46" d="M374.3,380.2c0.4-4.2,1-8.3,1.6-12.5c0.6-4.1,1.4-8.3,2.1-12.4c0.2-1.1,1.7-8.3,2.7-12.3
		c0.7-2.8,2-7.9,3.1-10.6l0.7-1.4l-0.4,1.5c-0.6,2.1-1.7,8.3-2.2,10.7l-2.3,12.3c-0.8,4.1-1.6,8.2-2.5,12.3
		C376.2,372,375.3,376.1,374.3,380.2L374.3,380.2z"/>
	<path class="st46" d="M380.5,349.5c0.7-1.6,1.9-3.4,3.1-4.8c1.2-1.3,2.7-2.9,4.3-3.8c-0.6,1.6-1.9,3.4-3.1,4.8
		C383.6,347.1,382,348.6,380.5,349.5L380.5,349.5z M376.5,370.5c1-1.5,2.6-3,4.1-4.1c1.4-1.1,3.3-2.3,5-2.8c-1,1.5-2.6,3-4.1,4.1
		C380.1,368.7,378.2,369.9,376.5,370.5z M377.1,364c-1.7-2.1-3.5-5.2-4.6-7.4c-1.1-2.3-2.6-5.5-3.2-8.1c1.7,2,3.5,5.1,4.6,7.4
		C375.1,358.2,376.5,361.4,377.1,364z"/>
	<path class="st45" d="M372.5,384.3c0,0,1.6-24.3-0.8-26.5c-2.4-2.3-5.7,4.3-7.6,3c-1.9-1.2-0.5-15.2-2.9-15.4
		c-2.4-0.2-1.7,6.3-3.9,5c-2.2-1.3-5.5-15.8-12.3-10.2c-8.6,7.1,5.3,14.2,4.3,15.7c-1.3,2-6.5,1.7-6.8,6.5
		C341.9,371,372.5,384.3,372.5,384.3L372.5,384.3z"/>
	<path class="st46" d="M371.1,382c-1.8-2.2-3.6-4.5-5.3-6.9c-1.7-2.3-3.4-4.7-5-7.1c-2.1-3.3-4.4-6.5-6.9-11.1c-2-3.9-1.4-3-1.8-3.9
		c1.4,2.4,1.2,2.1,2.3,3.7c0.3,0.5,0,0,7.3,10.7c1.6,2.4,3.2,4.8,4.8,7.2C368.1,377.1,369.6,379.6,371.1,382L371.1,382z"/>
	<path class="st46" d="M359.2,364c-0.5-1.1-0.7-2.6-0.8-3.8c-0.1-1.2-0.1-2.7,0.2-3.9c0.5,1.1,0.7,2.6,0.8,3.8
		S359.5,362.9,359.2,364z M367.5,376.2c-0.2-1.2-0.2-2.8,0-4c0.2-1.2,0.5-2.7,1.1-3.8c0.2,1.2,0.2,2.7,0,4
		C368.4,373.6,368,375.1,367.5,376.2z M364.6,372.7c-1.8-0.2-4.2-0.8-5.9-1.4c-1.7-0.5-4-1.4-5.6-2.4c1.8,0.2,4.2,0.8,5.9,1.4
		C360.8,370.9,363,371.8,364.6,372.7z"/>
	
		<linearGradient id="SVGID_00000122680652810987363710000015318992424367043729_" gradientUnits="userSpaceOnUse" x1="400.3076" y1="131.8205" x2="400.3076" y2="129.8543" gradientTransform="matrix(0.9167 0 0 -0.9167 4.75 503)">
		<stop  offset="0" style="stop-color:#909EFF"/>
		<stop  offset="1" style="stop-color:#6977E3"/>
	</linearGradient>
	<path style="fill:url(#SVGID_00000122680652810987363710000015318992424367043729_);" d="M357.1,380.1h29.1v5.7h-29.1V380.1z"/>
	
		<linearGradient id="SVGID_00000079470562793304056580000002048957815189111972_" gradientUnits="userSpaceOnUse" x1="400.3076" y1="124.052" x2="400.3076" y2="118.0159" gradientTransform="matrix(0.9167 0 0 -0.9167 4.75 503)">
		<stop  offset="0" style="stop-color:#909EFF"/>
		<stop  offset="1" style="stop-color:#6977E3"/>
	</linearGradient>
	<path style="fill:url(#SVGID_00000079470562793304056580000002048957815189111972_);" d="M379.7,403.2h-16.1l-3.6-17.4h23.2
		L379.7,403.2z"/>
</g>
</svg>
