<svg height="800" node-id="1" sillyvg="true" template-height="800" template-width="800" version="1.1" viewBox="0 0 800 800" width="800" xmlns="http://www.w3.org/2000/svg" xmlns:xlink="http://www.w3.org/1999/xlink"><defs node-id="48"><linearGradient gradientUnits="userSpaceOnUse" id="SVGID_1_" node-id="17" spreadMethod="pad" x1="387.151" x2="387.151" y1="87.6274" y2="706.619"><stop offset="0.0000001918004" stop-color="#f6f8ff"/><stop offset="1" stop-color="#d9e3ff"/></linearGradient><linearGradient gradientUnits="userSpaceOnUse" id="SVGID_2_" node-id="25" spreadMethod="pad" x1="355.0491" x2="355.0491" y1="213.3761" y2="609.6453"><stop offset="0.0000004795011" stop-color="#a9bfff"/><stop offset="1" stop-color="#7c9cff"/></linearGradient><linearGradient gradientUnits="userSpaceOnUse" id="SVGID_3_" node-id="29" spreadMethod="pad" x1="299.1851" x2="529.8334" y1="178.7297" y2="578.2243"><stop offset="0" stop-color="#d4e1ff"/><stop offset="1" stop-color="#7798ff"/></linearGradient><linearGradient gradientUnits="userSpaceOnUse" id="SVGID_4_" node-id="37" spreadMethod="pad" x1="410.7656" x2="558.4462" y1="392.5917" y2="648.382"><stop offset="0" stop-color="#c0d1ff"/><stop offset="1" stop-color="#7198fd"/></linearGradient></defs><g node-id="125"><g node-id="126"><path d="M 684.98 167.60 C 684.98 178.52 676.12 187.38 665.20 187.38 C 654.28 187.38 645.42 178.52 645.42 167.60 C 645.42 156.68 654.28 147.82 665.20 147.82 C 676.12 147.82 684.98 156.68 684.98 167.60 Z" fill="#f3f6ff" fill-rule="nonzero" group-id="1,2" node-id="80" stroke="none" target-height="39.559998" target-width="39.559998" target-x="645.42" target-y="147.82"/><path d="M 116.86 619.40 C 116.86 630.32 108.00 639.18 97.08 639.18 C 86.16 639.18 77.30 630.32 77.30 619.40 C 77.30 608.48 86.16 599.62 97.08 599.62 C 108.00 599.62 116.86 608.48 116.86 619.40 Z" fill="#dfe7ff" fill-rule="nonzero" group-id="1,2" node-id="82" stroke="none" target-height="39.559998" target-width="39.559998" target-x="77.3" target-y="599.62"/><path d="M 218.21 681.40 C 210.83 681.40 204.83 675.40 204.83 668.02 C 204.83 660.64 210.83 654.64 218.21 654.64 C 225.59 654.64 231.59 660.64 231.59 668.02 C 231.58 675.40 225.58 681.40 218.21 681.40 Z M 218.21 661.07 C 214.38 661.07 211.26 664.19 211.26 668.02 C 211.26 671.85 214.38 674.97 218.21 674.97 C 222.04 674.97 225.16 671.85 225.16 668.02 C 225.16 664.19 222.04 661.07 218.21 661.07 Z" fill="#dfe7ff" fill-rule="nonzero" group-id="1,2" node-id="84" stroke="none" target-height="26.76001" target-width="26.759995" target-x="204.83" target-y="654.64"/><path d="M 596.64 108.26 L 576.66 108.26 L 576.66 88.28 C 576.66 84.62 573.70 81.66 570.04 81.66 C 566.38 81.66 563.42 84.62 563.42 88.28 L 563.42 108.26 L 543.44 108.26 C 539.78 108.26 536.82 111.22 536.82 114.88 C 536.82 118.54 539.78 121.50 543.44 121.50 L 563.42 121.50 L 563.42 141.48 C 563.42 145.14 566.38 148.10 570.04 148.10 C 573.70 148.10 576.66 145.14 576.66 141.48 L 576.66 121.50 L 596.64 121.50 C 600.30 121.50 603.26 118.54 603.26 114.88 C 603.26 111.22 600.29 108.26 596.64 108.26 Z" fill="#f3f6ff" fill-rule="nonzero" group-id="1,2" node-id="86" stroke="none" target-height="66.44" target-width="66.44" target-x="536.82" target-y="81.66"/><path d="M 654.22 685.29 L 639.38 685.29 L 639.38 670.45 C 639.38 667.41 636.91 664.94 633.87 664.94 C 630.83 664.94 628.36 667.41 628.36 670.45 L 628.36 685.29 L 613.52 685.29 C 610.48 685.29 608.01 687.76 608.01 690.80 C 608.01 693.84 610.48 696.31 613.52 696.31 L 628.36 696.31 L 628.36 711.15 C 628.36 714.19 630.83 716.66 633.87 716.66 C 636.91 716.66 639.38 714.19 639.38 711.15 L 639.38 696.30 L 654.22 696.30 C 657.26 696.30 659.73 693.83 659.73 690.79 C 659.73 687.75 657.26 685.29 654.22 685.29 Z" fill="#dfe7ff" fill-rule="nonzero" group-id="1,2" node-id="88" stroke="none" target-height="51.71997" target-width="51.71997" target-x="608.01" target-y="664.94"/><path d="M 119.15 123.70 C 127.85 132.40 141.97 132.40 150.67 123.70 L 150.67 123.70 C 159.37 115.00 159.37 100.88 150.67 92.18 L 144.01 85.52 C 135.31 76.82 121.19 76.82 112.49 85.52 L 112.49 85.52 C 103.79 94.22 103.79 108.34 112.49 117.04 L 119.15 123.70 Z" fill="#f3f6ff" fill-rule="nonzero" group-id="1,2" node-id="90" stroke="none" target-height="55.579994" target-width="55.579994" target-x="103.79" target-y="76.82"/><path d="M 233.87 115.65 C 237.84 119.62 244.28 119.62 248.25 115.65 C 252.22 111.68 252.22 105.24 248.25 101.27 L 238.24 91.26 C 234.27 87.29 227.83 87.29 223.86 91.26 C 219.89 95.23 219.89 101.67 223.86 105.64 L 233.87 115.65 Z" fill="#f3f6ff" fill-rule="nonzero" group-id="1,2" node-id="92" stroke="none" target-height="32.33" target-width="32.33" target-x="219.89" target-y="87.29"/><path d="M 82.80 316.37 C 86.77 320.34 93.21 320.34 97.18 316.37 L 97.18 316.37 C 101.15 312.40 101.15 305.96 97.18 301.99 L 87.17 291.98 C 83.20 288.01 76.76 288.01 72.79 291.98 C 68.82 295.95 68.82 302.39 72.79 306.36 L 82.80 316.37 Z" fill="#f3f6ff" fill-rule="nonzero" group-id="1,2" node-id="94" stroke="none" target-height="32.329987" target-width="32.33" target-x="68.82" target-y="288.01"/><path d="M 610.76 623.83 C 606.79 619.86 600.35 619.86 596.38 623.83 C 592.41 627.80 592.41 634.24 596.38 638.21 L 606.39 648.22 C 610.36 652.19 616.80 652.19 620.77 648.22 C 624.74 644.25 624.74 637.81 620.77 633.84 L 610.76 623.83 Z" fill="#dfe7ff" fill-rule="nonzero" group-id="1,2" node-id="96" stroke="none" target-height="32.330017" target-width="32.330017" target-x="592.41" target-y="619.86"/><path d="M 731.15 632.32 C 731.15 650.42 716.48 665.09 698.38 665.09 C 680.28 665.09 665.61 650.42 665.61 632.32 C 665.61 614.22 680.28 599.55 698.38 599.55 C 716.48 599.55 731.15 614.22 731.15 632.32 Z" fill="#dfe7ff" fill-rule="nonzero" group-id="1,2" node-id="98" stroke="none" target-height="65.54004" target-width="65.54004" target-x="665.61" target-y="599.55"/><path d="M 699.03 480.36 L 667.52 448.85 L 647.55 427.58 C 642.38 422.15 642.31 413.64 647.39 408.12 L 647.39 408.12 C 652.94 402.09 662.43 401.98 668.11 407.89 L 672.15 412.30 L 681.47 421.62 C 686.88 427.03 695.76 427.44 701.27 422.13 C 706.88 416.72 706.95 407.78 701.46 402.29 L 682.83 383.66 C 675.95 376.78 671.47 367.84 670.17 358.20 C 651.95 222.81 535.97 118.41 395.59 118.41 C 390.80 118.41 386.04 118.54 381.31 118.78 C 376.20 119.04 371.21 117.17 367.60 113.55 L 348.46 94.41 C 339.91 85.86 325.99 85.23 317.14 93.47 C 307.85 102.12 307.66 116.66 316.55 125.56 L 319.89 128.90 L 330.30 139.84 C 336.84 146.76 335.87 157.84 328.22 163.52 C 321.71 168.35 313.54 166.78 308.03 160.83 L 287.34 140.37 L 269.30 122.33 C 265.47 118.50 259.24 118.05 255.17 121.62 C 250.71 125.54 250.55 132.33 254.68 136.46 L 267.82 149.60 L 276.38 157.84 C 285.08 166.36 285.27 179.64 276.62 188.20 L 276.62 188.20 C 268.03 196.69 254.17 196.58 245.73 187.94 L 230.99 172.61 L 195.68 137.30 C 186.98 128.60 172.86 128.60 164.16 137.30 L 164.16 137.30 C 155.46 146.00 155.46 160.12 164.16 168.82 L 189.77 194.51 L 198.75 202.89 C 207.24 211.32 207.44 224.98 199.20 233.65 L 199.20 233.65 C 190.38 242.94 175.51 242.76 166.92 233.25 L 161.96 227.81 L 146.60 212.37 C 133.98 199.75 113.40 198.97 100.44 211.25 C 86.99 223.98 86.77 245.22 99.78 258.23 L 137.12 295.56 L 154.92 313.15 C 161.63 319.79 161.42 330.70 154.46 337.08 L 154.46 337.08 C 147.88 343.11 137.70 342.83 131.47 336.45 L 126.12 330.90 L 118.01 322.79 C 114.04 318.82 107.60 318.82 103.63 322.79 L 103.63 322.79 C 98.57 326.99 99.94 333.48 103.69 337.23 L 121.48 355.02 L 158.47 391.11 C 164.85 397.33 164.88 407.58 158.55 413.84 L 158.55 413.84 C 152.37 419.95 142.43 419.99 136.21 413.92 L 118.54 396.68 L 92.58 370.72 C 87.17 365.31 78.29 364.90 72.78 370.21 C 67.17 375.62 67.10 384.56 72.59 390.05 L 116.48 433.94 C 120.03 437.49 122.39 442.05 123.32 446.99 C 146.81 571.92 254.12 667.26 384.62 672.35 C 391.82 672.63 398.68 675.51 403.90 680.49 C 412.36 688.57 424.17 699.83 424.17 699.83 C 432.72 708.38 446.64 709.01 455.49 700.77 C 464.78 692.12 464.97 677.58 456.08 668.68 L 453.82 666.42 L 444.01 656.18 C 438.42 650.12 438.98 640.63 445.24 635.26 L 445.24 635.26 C 451.17 630.18 460.05 630.68 465.37 636.39 L 485.59 657.61 L 507.61 679.63 C 516.51 688.52 531.05 688.33 539.70 679.05 C 547.94 670.21 547.30 656.28 538.76 647.73 L 529.26 638.23 C 529.26 638.23 526.24 635.12 522.37 631.14 C 513.34 621.86 513.66 606.98 523.07 598.09 L 523.55 597.64 C 532.57 589.12 546.70 589.21 555.62 597.84 L 569.44 611.22 L 575.35 617.13 C 579.18 620.96 585.42 621.41 589.48 617.84 C 593.94 613.92 594.10 607.13 589.97 603.00 L 584.82 597.85 C 583.88 598.29 563.99 577.81 552.19 565.53 C 547.44 560.59 547.63 552.74 552.60 548.03 L 552.60 548.03 C 557.55 543.34 565.37 543.56 570.05 548.51 L 601.08 581.33 L 615.23 595.48 C 627.85 608.10 648.42 608.88 661.39 596.61 C 674.84 583.88 675.06 562.64 662.05 549.63 L 639.48 527.06 L 628.08 514.63 C 622.51 508.61 622.76 499.25 628.64 493.53 L 628.64 493.53 C 634.75 487.59 644.56 487.89 650.31 494.18 L 653.23 497.58 L 667.87 512.23 C 676.77 521.13 691.31 520.93 699.96 511.65 C 708.21 502.84 707.57 488.91 699.03 480.36 Z" fill="url(#SVGID_1_)" fill-rule="nonzero" group-id="1,2" node-id="100" stroke="none" target-height="623.78" target-width="641.11005" target-x="67.1" target-y="85.23"/><path d="M 426.83 201.25 L 411.99 201.25 L 411.99 186.41 C 411.99 183.37 409.52 180.90 406.48 180.90 C 403.44 180.90 400.97 183.37 400.97 186.41 L 400.97 201.25 L 386.13 201.25 C 383.09 201.25 380.62 203.72 380.62 206.76 C 380.62 209.80 383.09 212.27 386.13 212.27 L 400.97 212.27 L 400.97 227.11 C 400.97 230.15 403.44 232.62 406.48 232.62 C 409.52 232.62 411.99 230.15 411.99 227.11 L 411.99 212.27 L 426.83 212.27 C 429.87 212.27 432.34 209.80 432.34 206.76 C 432.34 203.72 429.87 201.25 426.83 201.25 Z" fill="#ffffff" fill-rule="nonzero" group-id="1,2" node-id="102" stroke="none" target-height="51.72" target-width="51.72" target-x="380.62" target-y="180.9"/><path d="M 582.58 419.79 C 575.20 419.79 569.20 413.79 569.20 406.41 C 569.20 399.03 575.20 393.03 582.58 393.03 C 589.96 393.03 595.96 399.03 595.96 406.41 C 595.96 413.79 589.96 419.79 582.58 419.79 Z M 582.58 399.45 C 578.75 399.45 575.63 402.57 575.63 406.40 C 575.63 410.23 578.75 413.35 582.58 413.35 C 586.41 413.35 589.53 410.23 589.53 406.40 C 589.54 402.57 586.42 399.45 582.58 399.45 Z" fill="#ffffff" fill-rule="nonzero" group-id="1,2" node-id="104" stroke="none" target-height="26.76001" target-width="26.76001" target-x="569.2" target-y="393.03"/><path d="M 219.93 521.82 C 212.55 521.82 206.55 515.82 206.55 508.44 C 206.55 501.06 212.55 495.06 219.93 495.06 C 227.31 495.06 233.31 501.06 233.31 508.44 C 233.31 515.82 227.31 521.82 219.93 521.82 Z M 219.93 501.49 C 216.10 501.49 212.98 504.61 212.98 508.44 C 212.98 512.27 216.10 515.39 219.93 515.39 C 223.76 515.39 226.88 512.27 226.88 508.44 C 226.89 504.61 223.77 501.49 219.93 501.49 Z" fill="#ffffff" fill-rule="nonzero" group-id="1,2" node-id="106" stroke="none" target-height="26.76001" target-width="26.759995" target-x="206.55" target-y="495.06"/></g><g node-id="127"><path d="M 471.05 609.65 L 239.05 609.65 C 222.29 609.65 208.71 596.07 208.71 579.31 L 208.71 243.71 C 208.71 226.95 222.29 213.37 239.05 213.37 L 471.04 213.37 C 487.80 213.37 501.38 226.95 501.38 243.71 L 501.38 579.30 C 501.38 596.06 487.80 609.65 471.05 609.65 Z" fill="url(#SVGID_2_)" fill-rule="nonzero" group-id="1,3" node-id="111" stroke="none" target-height="396.28003" target-width="292.66998" target-x="208.71" target-y="213.37"/><path d="M 530.51 573.14 L 298.51 573.14 C 281.75 573.14 268.17 559.56 268.17 542.80 L 268.17 214.15 C 268.17 197.39 281.75 183.81 298.51 183.81 L 530.50 183.81 C 547.26 183.81 560.84 197.39 560.84 214.15 L 560.84 542.80 C 560.84 559.55 547.26 573.14 530.51 573.14 Z" fill="url(#SVGID_3_)" fill-rule="nonzero" group-id="1,3" node-id="113" stroke="none" target-height="389.33002" target-width="292.67" target-x="268.17" target-y="183.81"/><path d="M 523.73 250.58 L 306.49 250.58 C 303.99 250.58 301.96 248.55 301.96 246.05 L 301.96 239.19 C 301.96 236.69 303.99 234.66 306.49 234.66 L 523.73 234.66 C 526.23 234.66 528.26 236.69 528.26 239.19 L 528.26 246.05 C 528.26 248.55 526.23 250.58 523.73 250.58 Z" fill="#f7f8f8" fill-rule="nonzero" group-id="1,3" node-id="115" stroke="none" target-height="15.919998" target-width="226.30002" target-x="301.96" target-y="234.66"/><path d="M 523.73 308.54 L 306.49 308.54 C 303.99 308.54 301.96 306.51 301.96 304.01 L 301.96 297.15 C 301.96 294.65 303.99 292.62 306.49 292.62 L 523.73 292.62 C 526.23 292.62 528.26 294.65 528.26 297.15 L 528.26 304.01 C 528.26 306.52 526.23 308.54 523.73 308.54 Z" fill="#f7f8f8" fill-rule="nonzero" group-id="1,3" node-id="117" stroke="none" target-height="15.920013" target-width="226.30002" target-x="301.96" target-y="292.62"/><path d="M 523.73 367.29 L 306.49 367.29 C 303.99 367.29 301.96 365.26 301.96 362.76 L 301.96 355.90 C 301.96 353.40 303.99 351.37 306.49 351.37 L 523.73 351.37 C 526.23 351.37 528.26 353.40 528.26 355.90 L 528.26 362.76 C 528.26 365.26 526.23 367.29 523.73 367.29 Z" fill="#f7f8f8" fill-rule="nonzero" group-id="1,3" node-id="119" stroke="none" target-height="15.920013" target-width="226.30002" target-x="301.96" target-y="351.37"/><path d="M 393.18 429.65 L 306.49 429.65 C 303.99 429.65 301.96 427.62 301.96 425.12 L 301.96 418.26 C 301.96 415.76 303.99 413.73 306.49 413.73 L 393.18 413.73 C 395.68 413.73 397.71 415.76 397.71 418.26 L 397.71 425.12 C 397.71 427.62 395.68 429.65 393.18 429.65 Z" fill="#f7f8f8" fill-rule="nonzero" group-id="1,3" node-id="121" stroke="none" target-height="15.919983" target-width="95.75" target-x="301.96" target-y="413.73"/><path d="M 623.62 565.46 L 556.27 512.17 C 559.75 501.98 561.67 491.07 561.67 479.71 C 561.67 424.23 516.53 379.09 461.05 379.09 C 405.57 379.09 360.43 424.23 360.43 479.71 C 360.43 535.19 405.57 580.33 461.05 580.33 C 484.40 580.33 505.91 572.31 523.00 558.91 L 588.06 610.39 C 600.47 620.21 618.48 618.11 628.30 605.70 C 638.13 593.30 636.03 575.28 623.62 565.46 Z M 388.57 479.71 C 388.57 439.73 421.09 407.21 461.07 407.21 C 501.05 407.21 533.57 439.73 533.57 479.71 C 533.57 519.69 501.05 552.21 461.07 552.21 C 421.09 552.21 388.57 519.69 388.57 479.71 Z" fill="url(#SVGID_4_)" fill-rule="nonzero" group-id="1,3" node-id="123" stroke="none" target-height="241.12003" target-width="277.7" target-x="360.43" target-y="379.09"/></g></g></svg>