<?xml version="1.0" standalone="no"?><!DOCTYPE svg PUBLIC "-//W3C//DTD SVG 1.1//EN" "http://www.w3.org/Graphics/SVG/1.1/DTD/svg11.dtd"><svg height="1291" node-id="1" sillyvg="true" template-height="1291" template-width="1430" version="1.1" viewBox="0 0 1430 1291" width="1430" xmlns="http://www.w3.org/2000/svg" xmlns:xlink="http://www.w3.org/1999/xlink"><defs node-id="56"><linearGradient gradientUnits="userSpaceOnUse" id="_未命名的渐变_15" node-id="5" spreadMethod="pad" x1="716.4" x2="716.4" y1="629.82" y2="350.19"><stop offset="0" stop-color="#f7fbff"></stop><stop offset="1" stop-color="#ecf5ff"></stop></linearGradient><linearGradient gradientUnits="userSpaceOnUse" id="_未命名的渐变_15-2" node-id="8" spreadMethod="pad" x1="420.95" x2="420.95" y1="487.12" y2="367.47"><stop offset="0" stop-color="#f7fbff"></stop><stop offset="1" stop-color="#ecf5ff"></stop></linearGradient><linearGradient gradientUnits="userSpaceOnUse" id="_未命名的渐变_15-3" node-id="9" spreadMethod="pad" x1="709.91" x2="709.91" y1="311.19" y2="209.09"><stop offset="0" stop-color="#f7fbff"></stop><stop offset="1" stop-color="#ecf5ff"></stop></linearGradient><linearGradient gradientUnits="userSpaceOnUse" id="_未命名的渐变_15-4" node-id="10" spreadMethod="pad" x1="1006.52" x2="1006.52" y1="472.7" y2="348.78"><stop offset="0" stop-color="#f7fbff"></stop><stop offset="1" stop-color="#ecf5ff"></stop></linearGradient><linearGradient gradientUnits="userSpaceOnUse" id="_未命名的渐变_15-5" node-id="11" spreadMethod="pad" x1="620.2" x2="620.2" y1="465.63" y2="362.1"><stop offset="0" stop-color="#f7fbff"></stop><stop offset="1" stop-color="#ecf5ff"></stop></linearGradient><linearGradient gradientUnits="userSpaceOnUse" id="_未命名的渐变_15-6" node-id="12" spreadMethod="pad" x1="804.85" x2="804.85" y1="462.68" y2="357.54"><stop offset="0" stop-color="#f7fbff"></stop><stop offset="1" stop-color="#ecf5ff"></stop></linearGradient><linearGradient gradientUnits="userSpaceOnUse" id="_未命名的渐变_15-7" node-id="13" spreadMethod="pad" x1="580.63" x2="580.63" y1="340.62" y2="305.69"><stop offset="0" stop-color="#f7fbff"></stop><stop offset="1" stop-color="#ecf5ff"></stop></linearGradient><linearGradient gradientUnits="userSpaceOnUse" id="_未命名的渐变_15-8" node-id="14" spreadMethod="pad" x1="839.42" x2="839.42" y1="334.82" y2="299.54"><stop offset="0" stop-color="#f7fbff"></stop><stop offset="1" stop-color="#ecf5ff"></stop></linearGradient><linearGradient gradientUnits="userSpaceOnUse" id="_未命名的渐变_15-9" node-id="15" spreadMethod="pad" x1="854.69" x2="854.69" y1="637.39" y2="430.01"><stop offset="0" stop-color="#f7fbff"></stop><stop offset="1" stop-color="#ecf5ff"></stop></linearGradient><linearGradient gradientUnits="userSpaceOnUse" id="_未命名的渐变_15-10" node-id="16" spreadMethod="pad" x1="574.34" x2="574.34" y1="641.1" y2="439.72"><stop offset="0" stop-color="#f7fbff"></stop><stop offset="1" stop-color="#ecf5ff"></stop></linearGradient><linearGradient gradientUnits="userSpaceOnUse" id="_未命名的渐变_10" node-id="17" spreadMethod="pad" x1="714.93" x2="714.93" y1="1290.92" y2="995.69"><stop offset="0" stop-color="#f7fbff" stop-opacity="0.5"></stop><stop offset="1" stop-color="#ecf5ff"></stop></linearGradient><linearGradient gradientUnits="userSpaceOnUse" id="_未命名的渐变_15-11" node-id="20" spreadMethod="pad" x1="1227.25" x2="1007.27" y1="66.57" y2="66.57"><stop offset="0" stop-color="#f7fbff"></stop><stop offset="1" stop-color="#ecf5ff"></stop></linearGradient><linearGradient gradientUnits="userSpaceOnUse" id="_未命名的渐变_14" node-id="21" spreadMethod="pad" x1="714.81" x2="714.81" y1="996.86" y2="578.89"><stop offset="0" stop-color="#dcedff"></stop><stop offset="1" stop-color="#4095e6"></stop></linearGradient></defs><g node-id="205"><g node-id="206"><path d="M 738.73 616.25 C 739.90 613.54 739.93 610.59 739.96 607.63 C 737.74 497.13 738.47 482.50 736.25 371.99 C 736.22 363.70 734.12 356.74 724.34 352.32 C 715.02 348.57 705.87 349.60 698.38 356.88 C 692.63 361.58 692.56 367.49 692.96 374.07 C 694.44 454.25 693.57 438.68 695.05 518.87 C 695.78 549.19 696.06 578.83 696.78 609.15 C 696.61 615.62 698.95 621.44 704.61 625.60 C 715.94 633.92 734.14 629.48 738.72 616.25 Z" fill="url(#_未命名的渐变_15)" fill-rule="nonzero" group-id="1,2" node-id="142" stroke="none" target-height="285.34998" target-width="47.400024" target-x="692.56" target-y="348.57"></path><path d="M 391.75 368.92 C 385.66 372.36 383.33 377.78 384.30 384.50 C 385.58 392.46 386.99 399.86 388.28 407.82 C 389.81 414.65 387.47 420.08 382.41 424.33 C 376.53 429.60 370.66 434.86 365.23 440.81 C 360.62 445.75 359.54 450.84 363.02 456.90 C 365.92 462.84 370.81 465.06 376.99 464.00 C 384.25 463.13 391.47 461.89 398.60 460.29 C 406.72 458.46 412.87 460.35 418.75 466.33 C 423.04 471.38 428.02 475.98 432.42 480.47 C 437.16 486.21 443.07 489.22 450.41 485.46 C 458.32 481.81 459.20 474.89 457.78 467.50 L 454.54 449.06 C 452.67 440.98 455.25 434.42 461.25 428.59 C 466.32 424.34 470.24 419.85 474.62 416.04 C 479.80 411.22 482.83 405.36 479.59 398.16 C 476.35 390.96 469.51 389.52 462.07 390.90 C 455.90 391.96 449.15 392.90 442.86 394.53 C 434.61 396.93 428.14 393.78 422.27 387.81 L 407.69 372.31 C 403.97 367.38 398.28 366.18 391.74 368.94 Z" fill="url(#_未命名的渐变_15-2)" fill-rule="nonzero" group-id="1,2" node-id="144" stroke="none" target-height="123.04001" target-width="123.28998" target-x="359.54" target-y="366.18"></path><path d="M 738.15 306.73 C 745.07 310.56 751.46 311.32 757.57 304.92 C 762.99 298.97 761.91 292.83 757.99 286.08 C 754.84 281.27 752.38 276.02 748.78 270.53 C 743.84 262.97 743.68 255.25 748.32 247.36 C 751.23 242.06 754.26 236.20 757.16 230.89 C 760.31 224.45 760.94 218.68 755.50 213.39 C 749.62 207.41 743.45 208.47 736.80 211.79 C 730.71 215.24 724.74 218.12 719.11 222.25 C 712.21 226.71 705.71 226.51 698.78 222.68 C 692.42 218.97 685.95 215.82 678.90 212.56 C 672.99 209.53 667.50 210.15 662.43 214.40 C 658.38 219.46 657.19 225.12 660.10 231.06 C 664.02 237.81 667.84 245.12 671.76 251.86 C 675.81 258.04 675.75 263.94 672.03 270.26 C 668.77 277.26 665.05 283.58 661.78 290.57 C 658.75 296.44 659.27 302.46 663.67 306.94 C 668.53 312.11 675.03 312.30 681.12 308.86 C 687.77 305.53 693.98 301.53 700.07 298.08 C 706.84 294.19 712.90 293.69 719.82 297.52 C 726.18 301.23 732.20 303.69 738.11 306.72 L 738.11 306.72 Z" fill="url(#_未命名的渐变_15-3)" fill-rule="nonzero" group-id="1,2" node-id="146" stroke="none" target-height="104.889984" target-width="105.79999" target-x="657.19" target-y="207.41"></path><path d="M 1053.36 442.63 C 1060.44 442.94 1065.71 440.51 1067.84 433.27 C 1070.41 426.72 1068.07 420.90 1062.41 416.74 C 1056.74 412.58 1051.64 408.54 1045.86 404.95 C 1038.48 400.43 1035.24 393.24 1036.47 384.62 C 1037.22 378.28 1037.40 371.80 1037.57 365.34 C 1037.87 358.29 1035.53 352.48 1028.36 349.78 C 1021.20 347.08 1015.80 350.08 1011.64 355.70 C 1007.47 361.33 1003.43 366.39 999.83 372.13 C 994.74 379.34 988.89 381.65 980.11 380.98 C 973.15 380.10 965.96 380.35 958.88 380.04 C 952.38 379.85 947.54 382.97 945.09 388.96 C 943.21 395.06 943.96 399.96 949.05 403.99 C 955.73 408.95 962.42 413.92 968.53 418.76 C 973.63 422.80 976.66 428.17 975.91 434.52 L 974.65 457.33 C 974.35 464.37 976.81 469.62 984.10 471.76 C 990.70 474.34 996.09 471.34 1000.14 466.28 C 1004.31 460.65 1009.16 454.58 1013.44 448.39 C 1017.73 442.20 1023.57 439.89 1030.65 440.19 C 1038.63 441.88 1046.27 442.32 1053.34 442.63 L 1053.34 442.63 Z" fill="url(#_未命名的渐变_15-4)" fill-rule="nonzero" group-id="1,2" node-id="148" stroke="none" target-height="127.26001" target-width="127.20001" target-x="943.21" target-y="347.08"></path><path d="M 620.60 372.96 C 616.13 363.14 606.68 359.96 598.20 363.49 C 589.72 367.02 585.40 376.16 589.30 385.86 C 599.23 409.26 609.15 432.65 620.35 455.73 C 625.72 466.92 639.63 468.69 646.67 460.71 C 653.48 453.86 653.65 447.39 650.86 440.88 C 640.62 418.31 630.53 395.67 620.60 372.96 Z" fill="url(#_未命名的渐变_15-5)" fill-rule="nonzero" group-id="1,2" node-id="150" stroke="none" target-height="108.73001" target-width="68.25" target-x="585.4" target-y="359.96"></path><path d="M 780.04 457.57 C 788.97 465.97 801.90 463.97 806.80 452.00 C 816.68 427.96 825.98 403.70 834.70 379.21 C 837.76 370.40 832.48 361.59 824.18 358.65 C 815.30 355.59 806.25 359.00 803.19 367.82 C 793.37 391.77 784.56 416.53 775.30 440.60 C 772.72 447.16 774.49 452.85 780.04 457.57 Z" fill="url(#_未命名的渐变_15-6)" fill-rule="nonzero" group-id="1,2" node-id="152" stroke="none" target-height="110.380005" target-width="65.04004" target-x="772.72" target-y="355.59"></path><path d="M 568.36 310.44 C 561.64 317.21 561.67 328.15 568.44 334.87 C 568.63 335.06 568.83 335.25 569.03 335.43 C 575.93 342.22 585.96 342.56 592.89 335.15 C 599.82 327.74 599.57 317.63 592.11 310.73 C 585.21 303.95 575.05 304.16 568.37 310.44 L 568.37 310.44 Z" fill="url(#_未命名的渐变_15-7)" fill-rule="nonzero" group-id="1,2" node-id="154" stroke="none" target-height="38.609985" target-width="38.179993" target-x="561.64" target-y="303.95"></path><path d="M 851.75 329.57 C 858.55 322.73 857.98 311.37 851.09 304.58 C 844.19 297.79 834.03 298.01 827.35 304.29 C 820.54 311.14 820.43 322.94 827.90 329.84 C 834.79 336.62 844.96 336.41 851.76 329.57 Z" fill="url(#_未命名的渐变_15-8)" fill-rule="nonzero" group-id="1,2" node-id="156" stroke="none" target-height="38.829987" target-width="38.119995" target-x="820.43" target-y="297.79"></path><path d="M 932.59 442.51 C 927.73 431.86 915.20 427.10 904.50 431.84 C 813.11 472.85 787.64 531.35 775.07 613.29 C 773.24 624.74 781.13 635.28 792.64 637.12 C 804.00 638.96 814.69 631.24 816.53 619.89 C 816.54 619.83 816.55 619.76 816.56 619.70 C 827.22 546.83 846.49 503.57 921.36 470.31 C 933.06 465.68 937.52 453.02 932.60 442.51 L 932.60 442.51 Z" fill="url(#_未命名的渐变_15-9)" fill-rule="nonzero" group-id="1,2" node-id="158" stroke="none" target-height="211.86002" target-width="164.28003" target-x="773.24" target-y="427.1"></path><path d="M 491.83 452.80 C 487.74 463.76 492.98 475.52 503.89 480.19 C 580.31 509.97 601.69 552.35 616.73 624.74 C 617.60 629.07 619.73 633.07 622.78 635.49 C 627.73 640.17 634.69 642.08 641.34 640.60 C 652.56 638.24 660.19 627.43 657.79 616.27 C 641.58 535.35 612.13 477.65 519.23 441.42 C 508.32 436.75 496.50 441.94 491.83 452.79 L 491.83 452.79 Z" fill="url(#_未命名的渐变_15-10)" fill-rule="nonzero" group-id="1,2" node-id="160" stroke="none" target-height="205.33002" target-width="172.45001" target-x="487.74" target-y="436.75"></path></g><g node-id="207"><path d="M 1429.86 1143.31 C 1429.86 1182.46 1354.54 1220.01 1220.46 1247.69 C 1086.39 1275.38 904.54 1290.93 714.93 1290.93 C 525.32 1290.93 343.47 1275.38 209.40 1247.69 C 75.32 1220.01 0.00 1182.46 0.00 1143.31 C 0.00 1104.16 75.32 1066.61 209.40 1038.93 C 343.47 1011.24 525.32 995.69 714.93 995.69 C 904.54 995.69 1086.39 1011.24 1220.46 1038.93 C 1354.54 1066.61 1429.86 1104.16 1429.86 1143.31 Z" fill="url(#_未命名的渐变_10)" fill-rule="nonzero" group-id="1,3" node-id="165" stroke="none" target-height="295.24005" target-width="1429.86" target-x="0" target-y="995.69"></path><g node-id="208"><path d="M 1162.16 989.30 L 1176.10 989.30 C 1178.02 989.30 1179.58 990.86 1179.58 992.78 L 1179.58 992.78 L 1179.58 1055.50 C 1179.58 1059.35 1176.46 1062.47 1172.61 1062.47 L 1165.64 1062.47 C 1161.79 1062.47 1158.67 1059.35 1158.67 1055.50 L 1158.67 1055.50 L 1158.67 992.78 C 1158.67 990.86 1160.23 989.30 1162.15 989.30 L 1162.15 989.30 Z" fill="#e9f0f4" fill-rule="nonzero" group-id="1,3,4" node-id="169" stroke="none" target-height="73.16998" target-width="20.909912" target-x="1158.67" target-y="989.3"></path><path d="M 1169.13 846.43 L 1169.13 1020.66 L 1099.44 989.30 L 1169.13 846.43 Z" fill="#e1eaef" fill-rule="nonzero" group-id="1,3,4" node-id="171" stroke="none" target-height="174.22998" target-width="69.69006" target-x="1099.44" target-y="846.43"></path><path d="M 1169.13 846.43 L 1169.13 1020.66 L 1238.82 989.30 L 1169.13 846.43 Z" fill="#f5f7fa" fill-rule="nonzero" group-id="1,3,4" node-id="173" stroke="none" target-height="174.22998" target-width="69.68994" target-x="1169.13" target-y="846.43"></path></g><g node-id="209"><path d="M 1263.74 988.50 L 1282.24 988.50 C 1284.79 988.50 1286.87 990.57 1286.87 993.13 L 1286.87 993.13 L 1286.87 1076.38 C 1286.87 1081.49 1282.73 1085.63 1277.62 1085.63 L 1268.37 1085.63 C 1263.26 1085.63 1259.12 1081.49 1259.12 1076.38 L 1259.12 1076.38 L 1259.12 993.13 C 1259.12 990.58 1261.19 988.50 1263.75 988.50 L 1263.75 988.50 Z" fill="#e9f0f4" fill-rule="nonzero" group-id="1,3,5" node-id="178" stroke="none" target-height="97.130005" target-width="27.75" target-x="1259.12" target-y="988.5"></path><path d="M 1272.99 798.87 L 1272.99 1030.13 L 1180.49 988.50 L 1272.99 798.87 Z" fill="#e1eaef" fill-rule="nonzero" group-id="1,3,5" node-id="180" stroke="none" target-height="231.26001" target-width="92.5" target-x="1180.49" target-y="798.87"></path><path d="M 1272.99 798.87 L 1272.99 1030.13 L 1365.49 988.50 L 1272.99 798.87 Z" fill="#f5f7fa" fill-rule="nonzero" group-id="1,3,5" node-id="182" stroke="none" target-height="231.26001" target-width="92.5" target-x="1272.99" target-y="798.87"></path></g><g node-id="210"><path d="M 244.89 976.92 L 263.39 976.92 C 265.94 976.92 268.02 978.99 268.02 981.55 L 268.02 981.55 L 268.02 1064.80 C 268.02 1069.91 263.88 1074.05 258.77 1074.05 L 249.52 1074.05 C 244.41 1074.05 240.27 1069.91 240.27 1064.80 L 240.27 1064.80 L 240.27 981.55 C 240.27 979.00 242.34 976.92 244.90 976.92 L 244.90 976.92 Z" fill="#e9f0f4" fill-rule="nonzero" group-id="1,3,6" node-id="187" stroke="none" target-height="97.130066" target-width="27.749985" target-x="240.27" target-y="976.92"></path><path d="M 254.14 787.29 L 254.14 1018.55 L 161.64 976.92 L 254.14 787.29 Z" fill="#e1eaef" fill-rule="nonzero" group-id="1,3,6" node-id="189" stroke="none" target-height="231.26001" target-width="92.5" target-x="161.64" target-y="787.29"></path><path d="M 254.14 787.29 L 254.14 1018.55 L 346.64 976.92 L 254.14 787.29 Z" fill="#f5f7fa" fill-rule="nonzero" group-id="1,3,6" node-id="191" stroke="none" target-height="231.26001" target-width="92.500015" target-x="254.14" target-y="787.29"></path></g><path d="M 1204.13 65.71 C 1204.05 65.68 1203.99 65.60 1203.99 65.52 C 1204.02 28.87 1175.53 0.00 1140.41 0.00 C 1119.72 0.00 1101.40 9.91 1089.77 25.19 C 1089.72 25.26 1089.63 25.29 1089.55 25.26 C 1085.52 23.92 1081.22 23.16 1076.74 23.16 C 1054.36 23.16 1036.22 41.30 1036.22 63.68 C 1036.22 63.85 1036.24 64.02 1036.25 64.20 C 1019.35 67.03 1006.57 82.02 1007.31 99.88 C 1008.09 118.79 1024.84 133.15 1043.76 133.15 L 1191.12 133.15 C 1209.06 133.15 1225.09 120.16 1227.05 102.33 C 1228.88 85.56 1218.76 70.91 1204.14 65.71 Z" fill="url(#_未命名的渐变_15-11)" fill-rule="nonzero" group-id="1,3" node-id="194" stroke="none" target-height="133.15" target-width="222.31" target-x="1006.57" target-y="0"></path><path d="M 523.90 1169.85 C 523.90 1181.26 609.21 1190.59 714.93 1190.59 C 820.65 1190.59 905.96 1181.26 905.96 1169.85 C 905.96 1158.44 820.63 1149.09 714.93 1149.09 C 609.21 1149.01 523.90 1157.90 523.90 1169.83" fill="#ced6dd" fill-opacity="0.3" fill-rule="nonzero" group-id="1,3,7" node-id="198" stroke="none" target-height="41.579956" target-width="382.06" target-x="523.9" target-y="1149.01"></path><path d="M 923.80 787.88 C 923.80 903.30 830.23 996.87 714.81 996.87 C 599.39 996.87 505.82 903.30 505.82 787.88 C 505.82 672.46 599.39 578.89 714.81 578.89 C 830.23 578.89 923.80 672.46 923.80 787.88 Z" fill="url(#_未命名的渐变_14)" fill-rule="nonzero" group-id="1,3" node-id="201" stroke="none" target-height="417.97998" target-width="417.97998" target-x="505.82" target-y="578.89"></path><path d="M 829.11 738.23 L 692.88 874.46 C 689.70 877.65 684.53 877.65 681.35 874.46 C 681.35 874.46 681.35 874.46 681.35 874.46 L 600.53 793.64 C 597.35 790.45 597.35 785.29 600.53 782.10 L 625.93 756.70 C 629.11 753.51 634.28 753.51 637.46 756.70 L 637.46 756.70 C 637.46 756.70 687.11 806.35 687.11 806.35 L 792.16 701.29 C 795.34 698.10 800.51 698.10 803.69 701.29 C 803.69 701.29 803.69 701.29 803.69 701.29 L 829.09 726.69 C 832.28 729.88 832.28 735.05 829.09 738.24 L 829.09 738.24 Z" fill="#ffffff" fill-rule="nonzero" group-id="1,3" node-id="203" stroke="none" target-height="179.55005" target-width="234.93005" target-x="597.35" target-y="698.1"></path></g></g></svg>