<svg
  xmlns="http://www.w3.org/2000/svg"
  width="1em"
  height="1em"
  fill="none"
  viewBox="0 0 20 20"
>
  <path
    fill="currentColor"
    fillRule="evenodd"
    d="M8.38 13.497h-.954l-1.424 1.426a.801.801 0 0 1-1.132 0l-1.425-1.426H2.7a1.804 1.804 0 0 1-1.8-1.8V3.738c0-.477.19-.935.527-1.273a1.804 1.804 0 0 1 1.273-.527H13.98c.478 0 .936.19 1.273.527.337.338.527.796.527 1.273v4.85c.067-.006.133-.01.2-.01h1.32c.477 0 .935.19 1.273.527.337.337.527.795.527 1.273v4.639c0 .477-.19.935-.527 1.273a1.804 1.804 0 0 1-1.273.527h-.744l-1.01 1.01a.801.801 0 0 1-1.132 0l-1.01-1.01H10.17c-.477 0-.935-.19-1.273-.527a1.804 1.804 0 0 1-.527-1.273v-1.32c0-.067.004-.133.01-.2m5.8-1.8V3.738a.196.196 0 0 0-.06-.14.196.196 0 0 0-.14-.06H2.7a.196.196 0 0 0-.141.06.196.196 0 0 0-.059.14v7.96c0 .052.02.103.059.14a.196.196 0 0 0 .141.06h1.075c.212 0 .416.084.566.233l1.094 1.095 1.093-1.095a.803.803 0 0 1 .566-.234h6.884a.197.197 0 0 0 .141-.059.197.197 0 0 0 .06-.14m-4.01 1.8a.196.196 0 0 0-.141.06.197.197 0 0 0-.059.14v1.32c0 .053.02.104.059.14a.196.196 0 0 0 .141.06h3.565c.212 0 .415.084.566.234l.678.68.68-.68a.803.803 0 0 1 .565-.234H17.3c.053 0 .104-.021.141-.06a.196.196 0 0 0 .059-.14v-4.64a.196.196 0 0 0-.059-.14.197.197 0 0 0-.141-.06h-1.32a.197.197 0 0 0-.14.06.196.196 0 0 0-.06.14v1.32a1.8 1.8 0 0 1-1.8 1.8zM9.041 7.571c0 .441-.359.8-.8.8h-.356a.801.801 0 0 1 0-1.6h.356c.441 0 .8.358.8.8m-2.639-.018c0 .442-.359.8-.8.8h-.356a.8.8 0 1 1 0-1.601h.356c.441 0 .8.358.8.8m5.279.035c0 .443-.36.802-.801.802h-.356a.802.802 0 0 1 0-1.602h.356c.441 0 .8.359.8.8"
    clipRule="evenodd"
  ></path>
</svg>