<svg xmlns="http://www.w3.org/2000/svg" width="1em" height="1em" fill="none" viewBox="0 0 20 20"><path fill="currentColor" d="M8.5 13.5H6.75V16h-1.5v-2.5H3.5V12h5z"></path><path fill="currentColor" fill-rule="evenodd" d="M8 3a2 2 0 0 1 2-2h7a2 2 0 0 1 2 2v7a2 2 0 0 1-2 2h-6v5a2 2 0 0 1-2 2H3a2 2 0 0 1-2-2v-6a2 2 0 0 1 2-2h5zm.063 7.5H3a.5.5 0 0 0-.5.5v6a.5.5 0 0 0 .5.5h6a.5.5 0 0 0 .5-.5v-5.063A2.004 2.004 0 0 1 8.063 10.5M11 5a1 1 0 1 0 0-2 1 1 0 0 0 0 2M9.631 9.107 11.4 7.172a.5.5 0 0 1 .752.017l.976 1.169a.5.5 0 0 0 .758.011l2.166-2.44a.5.5 0 0 1 .754.008l.574.673a.5.5 0 0 1 .12.324V10a.5.5 0 0 1-.5.5h-7a.5.5 0 0 1-.5-.5v-.556a.5.5 0 0 1 .131-.337" clip-rule="evenodd"></path><path fill="currentColor" d="M5.354 2.146a.5.5 0 1 0-.708.708l.647.646H3.5A1.5 1.5 0 0 0 2 5v2.5a.5.5 0 0 0 1 0V5a.5.5 0 0 1 .5-.5h1.793l-.647.646a.5.5 0 1 0 .708.708L6.5 4.707a1 1 0 0 0 0-1.414z"></path></svg>