<?xml version="1.0" standalone="no"?><!DOCTYPE svg PUBLIC "-//W3C//DTD SVG 1.1//EN" "http://www.w3.org/Graphics/SVG/1.1/DTD/svg11.dtd"><svg class="icon"  
  width="1em"
  height="1em"
  viewBox="0 0 1137 1024" version="1.1" xmlns="http://www.w3.org/2000/svg"><path d="M414.008889 632.832a35.982222 35.982222 0 0 1-17.066667 3.925333c-14.535111 0-26.396444-7.879111-32.995555-19.683555l-2.702223-5.233778-104.135111-226.332444c-1.28-2.645333-1.28-5.205333-1.28-7.879112 0-10.524444 7.907556-18.432 18.488889-18.432 3.953778 0 7.907556 1.28 11.832889 3.953778l122.624 86.840889c9.187556 5.205333 19.768889 9.159111 31.630222 9.159111 6.627556 0 13.112889-1.28 19.740445-3.953778l575.032889-255.175111C932.295111 78.961778 762.254222 0 569.656889 0 255.829333 0 0 211.825778 0 473.514667c0 142.023111 76.487111 270.961778 196.437333 357.802666 9.159111 6.599111 15.786667 18.432 15.786667 30.264889 0 3.925333-1.251556 7.879111-2.673778 11.804445-9.159111 35.498667-25.116444 93.468444-25.116444 96a48.156444 48.156444 0 0 0-2.673778 14.506666c0 10.524444 7.907556 18.432 18.488889 18.432a14.961778 14.961778 0 0 0 10.581333-3.925333l123.904-72.362667c9.187556-5.205333 19.740444-9.159111 30.321778-9.159111 5.233778 0 11.861333 1.28 17.066667 2.673778 58.026667 17.038222 121.372444 26.311111 186.026666 26.311111C881.92 945.863111 1137.777778 734.037333 1137.777778 472.376889c0-78.961778-23.722667-153.884444-64.625778-219.733333L417.962667 630.158222l-3.953778 2.673778z" fill="#09BB07" /></svg>